#N canvas 178 17 682 688 10;
#N canvas 511 298 191 221 CONV 0;
#X obj 7 68 Conv~;
#X obj 8 160 outlet~;
#X obj 8 104 amp~;
#X obj 35 114 amp~;
#X obj 8 126 EPCross~;
#X obj 6 12 inlet~;
#X obj 34 39 inlet~;
#X connect 0 0 2 0;
#X connect 0 1 3 0;
#X connect 2 0 4 0;
#X connect 3 0 4 1;
#X connect 4 0 1 0;
#X connect 5 0 0 0;
#X connect 6 0 0 1;
#X restore 338 565 pd CONV;
#X obj -4 239 EPCross~;
#X obj -4 293 OUT1~;
#X obj -4 266 listen~;
#N canvas 123 280 607 395 Sample 0;
#X obj 74 138 *~ 0;
#N canvas 331 260 450 300 load_soundfile 0;
#X obj 65 34 inlet;
#X obj 66 68 openpanel;
#X obj 66 172 soundfiler;
#X obj 66 203 outlet;
#X obj 66 99 pack s \$0;
#X msg 66 136 read -resize \$1 \$2-table;
#X connect 0 0 1 0;
#X connect 1 0 4 0;
#X connect 2 0 3 0;
#X connect 4 0 5 0;
#X connect 5 0 2 0;
#X restore 304 3 pd load_soundfile;
#X obj 304 -20 bng 15 250 50 0 empty empty empty 17 7 0 10 -262144
-1 -1;
#X obj 74 186 *~ 0.5;
#X obj 74 -91 loadbang;
#X msg 74 -65 0 1 1;
#X floatatom 180 -87 5 0 0 0 - - -;
#X text 177 -106 Inlet 1 signal: output the interpolated value at that
index.;
#X obj 180 -62 phasor~ 0.5;
#X obj 76 -30 tof/breakpoints~;
#X obj 74 214 outlet~;
#X obj 308 59 table \$0-table;
#X obj 74 163 tabread4~ \$0-table;
#X obj 304 25 s \$0-samples;
#X obj 95 116 r \$0-samples;
#X msg 243 -83 0;
#X connect 0 0 12 0;
#X connect 1 0 13 0;
#X connect 2 0 1 0;
#X connect 3 0 10 0;
#X connect 4 0 5 0;
#X connect 5 0 9 0;
#X connect 6 0 8 0;
#X connect 8 0 9 0;
#X connect 9 0 0 0;
#X connect 12 0 3 0;
#X connect 14 0 0 1;
#X connect 15 0 8 1;
#X restore 30 345 pd Sample time stretching;
#N canvas 478 235 374 319 PARTCONV 1;
#X obj -61 200 soundfiler;
#X obj -231 259 *~;
#X obj -211 135 openpanel;
#X obj -211 162 t b s;
#X obj -78 38 vsl 8 128 0 100 0 1 empty empty empty 0 -8 0 8 -260818
-1 -1 3100 1;
#X obj -78 242 dbtorms;
#X obj -232 287 outlet~;
#X obj -211 89 bng 15 250 50 0 empty empty empty 17 7 0 10 -262144
-1 -1;
#X obj -61 220 table tpconv;
#X msg -211 191 set tpconv;
#X msg -61 179 read -resize \$1 tpconv;
#X obj -230 23 inlet~;
#X obj -230 224 partconv~ tpconv 2048;
#X connect 1 0 6 0;
#X connect 2 0 3 0;
#X connect 3 0 9 0;
#X connect 3 1 10 0;
#X connect 4 0 5 0;
#X connect 5 0 1 1;
#X connect 7 0 2 0;
#X connect 9 0 12 0;
#X connect 10 0 0 0;
#X connect 11 0 12 0;
#X connect 12 0 1 0;
#X restore 317 545 pd PARTCONV;
#N canvas 0 22 450 300 LOAD 0;
#X obj 128 178 cputime;
#X obj 128 38 loadbang;
#X obj 128 122 metro 1000;
#X msg 128 66 1;
#X floatatom 128 94 0 0 0 0 - - -;
#X obj 128 150 t b b;
#X obj 128 238 * 0.1;
#X obj 128 207 int;
#X text 173 94 <-- on/off;
#X obj 128 269 outlet;
#X connect 0 0 7 0;
#X connect 1 0 3 0;
#X connect 2 0 5 0;
#X connect 3 0 4 0;
#X connect 4 0 2 0;
#X connect 5 0 0 0;
#X connect 5 1 0 1;
#X connect 6 0 9 0;
#X connect 7 0 6 0;
#X restore 491 10 pd LOAD;
#X obj 491 31 nbx 3 24 0 100 0 0 empty empty empty 0 2 0 20 -262144
-1 -1 81 256;
#N canvas 0 14 143 139 MOOG 0;
#X obj 24 11 Moog~;
#X obj 24 75 amp~;
#X obj 24 -18 inlet~;
#X obj 24 93 outlet~;
#X obj 85 -18 inlet;
#X connect 0 0 1 0;
#X connect 1 0 3 0;
#X connect 2 0 0 0;
#X connect 4 0 0 1;
#X restore -48 574 pd MOOG;
#N canvas 136 14 140 139 BIQUAD 0;
#X obj 11 30 Biquad~;
#X obj 11 4 inlet~;
#X obj 73 5 inlet;
#X obj 11 112 outlet~;
#X obj 11 94 amp~;
#X connect 0 0 4 0;
#X connect 1 0 0 0;
#X connect 2 0 0 1;
#X connect 4 0 3 0;
#X restore -48 554 pd BIQUAD;
#N canvas 278 14 124 139 COMPANDER 0;
#X obj -2 18 inlet~;
#X obj -2 84 outlet~;
#X obj -2 40 Qompander~;
#X connect 0 0 2 0;
#X connect 2 0 1 0;
#X restore 81 545 pd COMPANDER;
#N canvas 0 22 159 152 SIG/UTILS 0;
#X obj 49 63 amp~;
#X obj 49 53 EPCross~;
#X obj 49 77 listen~;
#X obj 43 13 IN1~;
#X obj 71 13 IN2~;
#X obj 52 113 OUT1~;
#X connect 0 0 2 0;
#X connect 1 0 0 0;
#X restore 184 548 pd SIG/UTILS;
#X obj 396 458 IN2~;
#X obj -4 249 amp~;
#X obj 30 369 listen~;
#N canvas 405 14 110 139 SIG-SPLIT 0;
#X obj 2 29 Sig-Split~;
#X obj 3 2 inlet~;
#X obj 3 62 outlet~;
#X obj 16 79 outlet~;
#X obj 30 96 outlet~;
#X obj 46 113 outlet~;
#X connect 0 0 2 0;
#X connect 0 1 3 0;
#X connect 0 2 4 0;
#X connect 0 3 5 0;
#X connect 1 0 0 0;
#X restore -48 514 pd SIG-SPLIT;
#N canvas 67 510 449 109 VIEW 0;
#X obj 349 35 nbx 6 20 -1e+37 1e+37 0 0 empty empty empty 0 -8 0 15
-262144 -1 -1 682.91 256;
#X obj 349 55 nbx 6 20 -1e+37 1e+37 0 0 empty empty empty 0 -8 0 15
-262144 -1 -1 1.08492 256;
#X obj 349 75 nbx 6 20 -1e+37 1e+37 0 0 empty empty empty 0 -8 0 15
-262144 -1 -1 0 256;
#N canvas 159 97 450 300 (subpatch) 0;
#X array Filter-Response 401 float 0;
#X coords 0 1 399 -1 250 80 1;
#X restore 9 17 graph;
#X obj 349 11 r frequency;
#X obj 282 4 r Q;
#X obj 282 21 + 100;
#X obj 282 38 dbtorms;
#X obj 282 58 r gain;
#X connect 4 0 0 0;
#X connect 5 0 6 0;
#X connect 6 0 7 0;
#X connect 7 0 1 0;
#X connect 8 0 2 0;
#X restore 491 61 pd VIEW;
#N canvas 194 220 143 139 FOLLOWER 1;
#X obj 8 29 Follower~;
#X obj 7 8 inlet~;
#X obj 8 100 outlet;
#X connect 0 0 2 0;
#X connect 1 0 0 0;
#X restore 370 501 pd FOLLOWER;
#N canvas 293 23 128 151 LATTICE8 0;
#X obj 6 36 Lattice8~;
#X obj 6 13 inlet~;
#X obj 5 111 outlet~;
#X connect 0 0 2 0;
#X connect 1 0 0 0;
#X restore -48 593 pd LATTICE8;
#X obj 326 606 OUT1~;
#N canvas 0 0 450 300 Pitch-Shifter 0;
#X obj 33 83 complex-mod~;
#X obj 28 49 hilbert~;
#X obj 27 17 inlet~;
#X obj 102 45 inlet;
#X obj 32 143 outlet~;
#X obj 103 143 outlet~;
#X connect 0 0 4 0;
#X connect 0 1 5 0;
#X connect 1 0 0 0;
#X connect 1 1 0 1;
#X connect 2 0 1 0;
#X connect 3 0 0 2;
#X restore -7 118 pd Pitch-Shifter;
#X obj 86 100 nbx 5 14 -1e+37 1e+37 0 0 empty empty empty 0 -8 0 10
-262144 -1 -1 0 256;
#X obj 345 459 IN1~;
#N canvas 0 0 142 111 NOISEMASK 0;
#X obj 19 41 NoiseMask~;
#X obj 19 14 inlet~;
#X obj 18 68 outlet~;
#X connect 0 0 2 0;
#X connect 1 0 0 0;
#X restore -48 534 pd NOISEMASK;
#X obj 270 436 Env-Gen~;
#N canvas 482 122 450 300 dawtooth 0;
#X text 65 52 select waveform:;
#X text 63 96 sawtooth;
#X text 61 84 triangle;
#X obj 179 210 *~ 0.2;
#X obj 179 188 /~ 1.5708;
#X obj 170 84 cycle~ 130;
#X obj 262 94 -~ 1;
#X obj 262 72 *~ 2;
#X obj 262 50 phasor~ 130;
#X text 216 152 outputs signal from -pi/2 to pi/2;
#X msg 112 81 0;
#X msg 112 99 1;
#X obj 179 119 zexy/multiplex~;
#X obj 178 152 asin~;
#X obj 184 41 nbx 5 14 -1e+37 1e+37 0 0 empty empty empty 0 -8 0 10
-262144 -1 -1 0 256;
#X connect 4 0 3 0;
#X connect 5 0 12 0;
#X connect 6 0 12 1;
#X connect 7 0 6 0;
#X connect 8 0 7 0;
#X connect 10 0 12 0;
#X connect 11 0 12 0;
#X connect 12 0 13 0;
#X connect 13 0 4 0;
#X connect 14 0 5 0;
#X connect 14 0 8 0;
#X restore 466 249 pd dawtooth tri;
#X obj 450 317 tgl 15 0 empty empty empty 0 -6 0 8 -262144 -1 -1 0
1;
#X text 469 313 generate short noisebursts;
#N canvas 0 22 290 283 burst 0;
#X obj 48 173 noise~;
#X obj 95 172 line~;
#X obj 79 203 *~;
#X obj 95 73 metro 300;
#X msg 43 132 0 20;
#X msg 95 112 1 10;
#X obj 44 112 del 20;
#X obj 95 43 inlet;
#X obj 79 236 outlet~;
#X connect 0 0 2 0;
#X connect 1 0 2 1;
#X connect 2 0 8 0;
#X connect 3 0 5 0;
#X connect 3 0 6 0;
#X connect 4 0 1 0;
#X connect 5 0 1 0;
#X connect 6 0 4 0;
#X connect 7 0 3 0;
#X restore 450 345 pd burst;
#N canvas 531 210 450 300 allpass 0;
#X floatatom 146 162 5 0 0 0 - - -;
#X obj 219 181 / 100;
#X floatatom 219 162 5 0 0 0 - - -;
#X text 199 141 delay time;
#X text 264 161 gain;
#X text 143 83 del time / gain can also be;
#X text 232 206 allpass~ accepts up o 4 args:;
#X text 233 221 1 max del time (default 10ms);
#X text 233 234 2 initial del time;
#X text 233 246 3 initial gain;
#X text 233 258 4 gain coefficient;
#X text 143 93 specified using signals when;
#X text 142 105 using a signal to control gain;
#X text 142 117 the gain coeff is ignored \, see below;
#X msg 98 163 clear;
#X obj 84 209 allpass~ 100 4 0.7 0;
#X obj 84 68 inlet~;
#X obj 83 242 outlet~;
#X connect 0 0 15 1;
#X connect 1 0 15 2;
#X connect 2 0 1 0;
#X connect 14 0 15 0;
#X connect 15 0 17 0;
#X connect 16 0 15 0;
#X restore 258 352 pd allpass;
#N canvas 0 0 662 515 comb 0;
#X text 320 36 comb filter;
#X floatatom 258 177 5 0 0 0 - - -;
#X floatatom 301 201 5 0 0 0 - - -;
#X floatatom 343 224 5 0 0 0 - - -;
#X floatatom 386 250 5 0 0 0 - - -;
#X msg 100 239 clear;
#X text 63 217 clear buffer;
#X msg 137 177 10 0.4 0.7;
#X text 307 177 D = delay time;
#X text 345 201 a = input (pre delay) amplitude coefficient;
#X text 391 225 b = input (post delay) amplitude coefficient;
#X text 431 251 c = outnput amplitude coefficient;
#X text 142 158 D a b;
#X text 288 151 D \, a \, b \, c inlets support signals aswell;
#X obj 216 275 comb~ 100 0.2 0.2 0.3 0.9;
#X obj 216 306 outlet~;
#X obj 216 132 inlet~;
#X connect 1 0 14 1;
#X connect 2 0 14 2;
#X connect 3 0 14 3;
#X connect 4 0 14 4;
#X connect 5 0 14 0;
#X connect 7 0 14 0;
#X connect 14 0 15 0;
#X connect 16 0 14 0;
#X restore 260 331 pd comb;
#N canvas 476 215 450 300 sof 0;
#X obj 192 87 +~ 11;
#X obj 191 62 *~ 10;
#X obj 191 38 cycle~ 0.5;
#X text 216 146 outputs soft clipped signal;
#X text 66 -1 can be used to simulate analog distortion \, and is much
"smoother" than using clip~;
#X obj 178 142 tanh~;
#X obj 178 109 *~;
#X obj 110 55 inlet~;
#X obj 179 206 outlet~;
#X obj 178 177 *~ 0.1;
#X connect 0 0 6 1;
#X connect 1 0 0 0;
#X connect 2 0 1 0;
#X connect 5 0 9 0;
#X connect 6 0 5 0;
#X connect 7 0 6 0;
#X connect 9 0 8 0;
#X restore 259 309 pd sof analog dist;
#X obj 24 163 Granular-Voice~;
#X obj 38 183 Granular-Voice~;
#X obj 102 433 Tel~;
#N canvas 0 0 450 300 limiter 0;
#X obj 114 140 *~;
#X obj 114 120 z~ 64;
#X obj 118 55 inlet~;
#X obj 129 96 limiter~ 50;
#X obj 116 170 outlet~;
#X connect 0 0 4 0;
#X connect 1 0 0 0;
#X connect 2 0 1 0;
#X connect 2 0 3 0;
#X connect 3 0 0 1;
#X restore 247 205 pd limiter;
#X connect 0 0 19 0;
#X connect 1 0 13 0;
#X connect 3 0 2 0;
#X connect 4 0 14 0;
#X connect 5 0 19 0;
#X connect 6 0 7 0;
#X connect 12 0 17 0;
#X connect 12 0 0 1;
#X connect 13 0 3 0;
#X connect 21 0 20 1;
#X connect 22 0 17 0;
#X connect 22 0 0 0;
#X connect 26 0 28 0;
