#N canvas 85 22 618 638 10;
#X obj 301 21 inlet~;
#X obj 330 586 outlet~;
#X obj 103 100 hsl 50 10 4 400 1 0 \$0-comp-point empty empty -2 -8
0 10 -262144 -1 -1 4900 1;
#X obj 103 130 hsl 50 10 0.2 100 1 0 \$0-exp-point empty empty -2 -8
0 10 -262144 -1 -1 4630 1;
#X obj 480 89 expr 0.01*$f1*$f1;
#X obj 587 170 expr 0.01*$f1*$f1;
#X obj 323 225 clip~;
#X obj 362 279 -~;
#X obj 376 259 sig~;
#X obj 518 296 expr $f1-$f2;
#X obj 491 33 t b;
#X obj 328 537 +~;
#X obj 601 195 nbx 5 14 -1e+37 1e+37 0 0 empty empty empty 0 -8 0 10
-262144 -1 -1 50.4153 256;
#X obj 492 116 nbx 5 14 -1e+37 1e+37 0 0 empty empty empty 0 -8 0 10
-262144 -1 -1 1600 256;
#X obj 103 140 hsl 50 10 0.1 10 1 0 \$0-exp-thersold empty empty -2
-8 0 10 -262144 -1 -1 2900 1;
#X obj 329 560 clip~;
#X obj 256 395 *~;
#X obj 240 425 *~;
#X obj 410 332 sig~;
#X obj 521 322 nbx 5 14 -1e+37 1e+37 0 0 empty empty empty 0 -8 0 10
-262144 -1 -1 138.961 256;
#X obj 256 307 /~;
#X obj 358 452 *~;
#X obj 395 355 /~;
#X obj 840 155 block~ 2048 4;
#X msg 840 132 set \$1 4;
#X obj 840 84 inlet;
#X obj 840 109 f;
#X obj 343 482 *~;
#X obj 240 248 clip~;
#X obj 103 110 hsl 50 10 0 20 0 0 \$0-denoiser-point empty empty -2
-8 0 10 -262144 -1 -1 0 1;
#X obj 301 57 clip~;
#X obj 301 110 -~;
#X obj 315 90 sig~;
#X obj 480 67 r \$0-comp-point;
#X obj 347 -57 r \$0-denoiser-point;
#X obj 346 -32 expr 0.01*$f1*$f1;
#X obj 588 146 r \$0-exp-point;
#X obj 251 57 clip~ 0;
#X obj 251 91 *~;
#X obj 103 120 hsl 50 10 0 1 0 0 \$0-denoiser-thersold empty empty
-2 -8 0 10 -262144 -1 -1 0 1;
#X obj 272 139 +~;
#X obj 142 490 r \$0-exp-thersold;
#X obj 155 510 nbx 5 14 -1e+37 1e+37 0 0 empty empty empty 0 -8 0 10
-262144 -1 -1 1.52642 256;
#X obj 271 373 sig~;
#X obj 373 433 sig~;
#X obj 187 9 nbx 5 14 0 1 0 0 empty empty empty 0 -8 0 10 -262144 -1
-1 0 256;
#X obj 267 -3 r \$0-denoiser-thersold;
#X obj 326 392 -~;
#X obj 316 355 sig~;
#X msg 315 329 1;
#X obj 314 311 loadbang;
#X connect 0 0 30 0;
#X connect 0 0 37 0;
#X connect 0 0 28 0;
#X connect 0 0 6 0;
#X connect 4 0 6 2;
#X connect 4 0 13 0;
#X connect 4 0 15 2;
#X connect 4 0 30 2;
#X connect 5 0 6 1;
#X connect 5 0 8 0;
#X connect 5 0 10 0;
#X connect 5 0 12 0;
#X connect 5 0 28 2;
#X connect 5 0 9 1;
#X connect 5 0 20 1;
#X connect 6 0 7 0;
#X connect 7 0 22 0;
#X connect 7 0 27 0;
#X connect 8 0 7 1;
#X connect 9 0 18 0;
#X connect 9 0 19 0;
#X connect 10 0 4 0;
#X connect 11 0 15 0;
#X connect 15 0 1 0;
#X connect 16 0 17 1;
#X connect 17 0 11 0;
#X connect 18 0 22 1;
#X connect 20 0 16 0;
#X connect 21 0 27 1;
#X connect 22 0 47 1;
#X connect 24 0 23 0;
#X connect 25 0 26 0;
#X connect 26 0 24 0;
#X connect 27 0 11 1;
#X connect 28 0 17 0;
#X connect 28 0 20 0;
#X connect 30 0 31 0;
#X connect 31 0 40 1;
#X connect 32 0 31 1;
#X connect 33 0 4 0;
#X connect 34 0 35 0;
#X connect 35 0 30 1;
#X connect 35 0 37 2;
#X connect 35 0 10 0;
#X connect 35 0 32 0;
#X connect 36 0 5 0;
#X connect 37 0 38 0;
#X connect 38 0 40 0;
#X connect 41 0 44 0;
#X connect 41 0 43 0;
#X connect 41 0 42 0;
#X connect 43 0 16 1;
#X connect 44 0 21 1;
#X connect 46 0 38 1;
#X connect 46 0 45 0;
#X connect 47 0 21 0;
#X connect 48 0 47 0;
#X connect 49 0 48 0;
#X connect 50 0 49 0;
#X coords 0 -1 1 1 55 50 2 100 100;
