#N canvas 0 22 1366 689 10;
#X obj 197 -240 inlet~;
#X obj 415 163 outlet;
#X obj 103 115 hsl 91 10 1 100 0 0 \$0-preGain empty empty -2 -8 0
10 -196563 -1 -1 0 1;
#X obj 103 155 hsl 91 10 1.27 1000 0 0 \$0-minTime empty empty -2 -8
0 10 -258113 -262144 -262144 0 1;
#X obj 166 100 bng 15 250 50 0 empty empty empty 17 7 0 10 -262144
-1 -1;
#X obj 181 100 bng 15 250 50 0 empty empty empty 17 7 0 10 -262144
-1 -1;
#X obj 507 -115 route 1 2 3 4;
#X obj 396 -142 fiddle~ 1024 1 20 3;
#X obj 545 -46 unpack;
#X obj 507 -88 unpack;
#X obj 525 -67 unpack;
#X obj 507 7 pack 1 0;
#X obj 545 48 pack 3 0;
#X obj 525 28 pack 2 0;
#X obj 507 -47 t b f;
#X obj 525 -26 t b f;
#X obj 545 -6 t b f;
#X obj 319 2 bonk~;
#X obj 336 -47 pack 0 0;
#X obj 110 -131 spigot~;
#N canvas 9 265 499 396 homemadeAttackRest 0;
#X obj -132 39 dbtorms;
#X obj -147 79 env~;
#X obj -245 130 t b f;
#X floatatom -245 153 0 0 0 0 - - -;
#X obj -238 208 pack;
#X obj -238 231 route 0 1;
#X obj -238 254 > 55;
#X obj -188 254 < 45;
#X obj -238 277 sel 1;
#X obj -188 277 sel 1;
#X msg -274 288 1;
#X msg -274 266 0;
#X obj -245 185 != 0;
#X obj -84 130 t b f;
#X floatatom -93 156 0 0 0 0 - - -;
#X obj -81 206 pack;
#X obj -81 229 route 0 1;
#X obj -81 267 sel 1;
#X msg -112 364 1;
#X msg -111 387 0;
#X obj -88 184 != 0;
#X obj -50 157 < 45;
#X obj -77 301 timer;
#X obj 5 230 sel 0;
#X obj -13 350 sel 0;
#X obj -63 350 sel 1;
#X obj -77 324 > 1000;
#X text -106 74 REST DETECTION;
#X obj -147 56 *~;
#X text -270 71 ATTACK DETECTION;
#X msg -238 402 attack;
#X msg -63 402 rest;
#X obj -148 0 inlet~;
#X obj -200 461 outlet;
#X obj -132 20 inlet;
#X obj 26 52 inlet;
#X obj 5 28 inlet;
#X obj 97 116 outlet;
#X obj 97 96 spigot;
#X obj 130 58 inlet;
#X obj 167 212 inlet;
#X obj -135 461 outlet;
#X connect 0 0 28 1;
#X connect 1 0 2 0;
#X connect 1 0 13 0;
#X connect 1 0 38 0;
#X connect 2 0 3 0;
#X connect 2 1 4 1;
#X connect 3 0 12 0;
#X connect 4 0 5 0;
#X connect 5 0 6 0;
#X connect 5 1 7 0;
#X connect 6 0 8 0;
#X connect 7 0 9 0;
#X connect 8 0 10 0;
#X connect 8 0 30 0;
#X connect 9 0 11 0;
#X connect 10 0 3 0;
#X connect 11 0 3 0;
#X connect 12 0 4 0;
#X connect 13 0 14 0;
#X connect 13 1 21 0;
#X connect 14 0 20 0;
#X connect 15 0 16 0;
#X connect 16 0 17 0;
#X connect 16 1 24 0;
#X connect 17 0 22 1;
#X connect 18 0 14 0;
#X connect 19 0 14 0;
#X connect 20 0 15 0;
#X connect 21 0 15 1;
#X connect 21 0 23 0;
#X connect 22 0 26 0;
#X connect 23 0 22 0;
#X connect 24 0 19 0;
#X connect 25 0 18 0;
#X connect 25 0 31 0;
#X connect 26 0 25 0;
#X connect 28 0 1 0;
#X connect 30 0 33 0;
#X connect 31 0 41 0;
#X connect 32 0 28 0;
#X connect 34 0 0 0;
#X connect 35 0 21 1;
#X connect 35 0 7 1;
#X connect 36 0 6 1;
#X connect 38 0 37 0;
#X connect 39 0 38 1;
#X connect 40 0 26 1;
#X restore 109 13 pd homemadeAttackRest;
#X obj 103 125 hsl 91 10 1 100 0 0 empty \$0-Gain empty -2 -8 0 10
-117468 -1 -1 0 1;
#X obj 115 100 tgl 15 0 \$0-showGain empty empty 17 7 0 10 -262144
-1 -1 0 1;
#X obj 103 135 hsl 91 10 1 100 0 0 \$0-Ltresh empty empty -2 -8 0 10
-196563 -1 -1 0 1;
#X obj 103 145 hsl 91 10 1 100 0 0 \$0-Htresh empty empty -2 -8 0 10
-196563 -1 -1 0 1;
#X obj 346 30 unpack 0 0;
#X obj 100 100 tgl 15 0 \$0-AR/A empty empty 17 7 0 10 -262144 -1 -1
0 1;
#X msg 336 -24 thresh \$1 \$2;
#X msg 403 56 attack;
#X obj 347 -73 t b f;
#X obj 247 -134 r \$0-Lthresh;
#X obj 292 -112 r \$0-Hthresh;
#X obj 133 -47 r \$0-preGain;
#X obj 207 -26 r \$0-showGain;
#X obj 232 35 s \$0-Gain;
#X obj 149 -152 r \$0-AR/A;
#X obj 232 -6 r \$0-minTime;
#X connect 0 0 7 0;
#X connect 0 0 19 0;
#X connect 6 0 9 0;
#X connect 6 1 10 0;
#X connect 6 2 8 0;
#X connect 7 4 6 0;
#X connect 8 0 16 0;
#X connect 9 0 14 0;
#X connect 10 0 15 0;
#X connect 11 0 1 0;
#X connect 12 0 1 0;
#X connect 13 0 1 0;
#X connect 14 0 11 0;
#X connect 14 1 11 1;
#X connect 15 0 13 0;
#X connect 15 1 13 1;
#X connect 16 0 12 0;
#X connect 16 1 12 1;
#X connect 17 1 25 0;
#X connect 18 0 27 0;
#X connect 19 0 20 0;
#X connect 19 1 17 0;
#X connect 20 0 1 0;
#X connect 20 0 4 0;
#X connect 20 1 1 0;
#X connect 20 1 5 0;
#X connect 20 2 34 0;
#X connect 25 1 4 0;
#X connect 25 1 28 0;
#X connect 27 0 17 0;
#X connect 28 0 1 0;
#X connect 29 0 18 0;
#X connect 29 1 18 1;
#X connect 30 0 18 0;
#X connect 30 0 20 2;
#X connect 31 0 29 0;
#X connect 31 0 20 3;
#X connect 32 0 20 1;
#X connect 33 0 20 4;
#X connect 35 0 19 1;
#X connect 36 0 20 5;
#X coords 0 -1 1 1 96 65 2 100 100;
