#N canvas 0 22 1366 689 10;
#X obj 58 205 phasor~;
#X obj 21 329 *~ -1;
#X obj 21 354 +~ 1;
#X obj 42 454 *~;
#X obj 76 352 samphold~;
#X obj 42 381 *~;
#X obj 77 324 sig~;
#X floatatom 156 275 5 0 0 0 - - -;
#X floatatom 93 122 10 0 0 0 - - -;
#X floatatom 58 180 5 0 0 0 - - -;
#X floatatom 190 83 5 0 0 0 - - -;
#X obj 190 104 t b f;
#X obj 42 537 *~;
#X obj 156 249 / 44.1;
#X obj 233 325 *~ -1;
#X obj 233 349 +~ 1;
#X obj 258 453 *~;
#X obj 281 352 samphold~;
#X obj 258 380 *~;
#X obj 282 324 sig~;
#X obj 272 251 +~ 0.5;
#X obj 272 273 wrap~;
#X obj 137 -42 vsl 15 128 100 30000 0 0 empty empty empty 0 -8 0 8
-262144 -1 -1 0 1;
#X obj 137 94 t b f;
#X obj 190 3 vsl 15 73 -36 36 0 0 empty empty empty 0 -8 0 8 -262144
-1 -1 0 1;
#X obj 93 143 expr (pow(2 \, ($f2/12)) - 1) * (44100/$f1);
#X floatatom 57 494 5 0 0 0 - - -;
#X text 207 67 -36;
#X text 213 -5 36;
#X text 156 -49 30000;
#X text 154 75 100;
#X obj 258 513 *~;
#X floatatom 273 491 5 0 0 0 - - -;
#X text 307 491 0-1;
#X text 136 -71 window width;
#X obj 312 514 inlet~;
#X obj 42 556 outlet~;
#N canvas 0 22 450 300 sighanning 0;
#X obj 152 126 sig~ 1;
#X obj 196 131 cos~;
#X obj 153 159 -~;
#X obj 154 184 *~ 0.5;
#X obj 202 81 inlet~;
#X obj 149 221 outlet~;
#X connect 0 0 2 0;
#X connect 1 0 2 1;
#X connect 2 0 3 0;
#X connect 3 0 5 0;
#X connect 4 0 1 0;
#X restore 58 433 pd sighanning;
#N canvas 0 22 450 300 sighanning 0;
#X obj 152 126 sig~ 1;
#X obj 196 131 cos~;
#X obj 153 159 -~;
#X obj 154 184 *~ 0.5;
#X obj 202 81 inlet~;
#X obj 149 221 outlet~;
#X connect 0 0 2 0;
#X connect 1 0 2 1;
#X connect 2 0 3 0;
#X connect 3 0 5 0;
#X connect 4 0 1 0;
#X restore 273 431 pd sighanning;
#X obj 312 545 delwrite~ \$0-granular 5000;
#X obj 42 410 vd~ \$0-granular;
#X obj 258 408 vd~ \$0-granular;
#X connect 0 0 1 0;
#X connect 0 0 4 1;
#X connect 0 0 20 0;
#X connect 0 0 37 0;
#X connect 1 0 2 0;
#X connect 2 0 5 0;
#X connect 3 0 12 0;
#X connect 3 0 31 0;
#X connect 4 0 5 1;
#X connect 5 0 40 0;
#X connect 6 0 4 0;
#X connect 7 0 19 0;
#X connect 7 0 6 0;
#X connect 8 0 13 0;
#X connect 8 0 25 0;
#X connect 9 0 0 0;
#X connect 10 0 11 0;
#X connect 11 0 8 0;
#X connect 11 1 25 1;
#X connect 12 0 36 0;
#X connect 13 0 7 0;
#X connect 14 0 15 0;
#X connect 15 0 18 0;
#X connect 16 0 12 0;
#X connect 16 0 31 0;
#X connect 17 0 18 1;
#X connect 18 0 41 0;
#X connect 19 0 17 0;
#X connect 20 0 21 0;
#X connect 21 0 14 0;
#X connect 21 0 17 1;
#X connect 21 0 38 0;
#X connect 22 0 23 0;
#X connect 23 0 10 0;
#X connect 23 1 8 0;
#X connect 24 0 10 0;
#X connect 25 0 9 0;
#X connect 26 0 12 1;
#X connect 31 0 39 0;
#X connect 32 0 31 1;
#X connect 35 0 39 0;
#X connect 37 0 3 1;
#X connect 38 0 16 1;
#X connect 40 0 3 0;
#X connect 41 0 16 0;
