#N canvas 266 324 255 207 10;
#X floatatom 136 127 0 0 0 0 - - -;
#N canvas 220 28 648 669 fft-analysis 0;
#X obj 35 589 *~;
#X obj 143 305 *~;
#X obj 158 150 *~;
#X obj 35 72 *~;
#X obj 76 527 *~;
#X obj 35 44 inlet~;
#X obj 35 528 *~;
#X obj 34 101 rfft~;
#X obj 35 558 rifft~;
#X obj 36 616 outlet~;
#X obj 119 149 *~;
#X obj 119 176 +~;
#X obj 165 278 r mask-level;
#X obj 100 422 /~;
#X obj 355 23 block~ 1024 4;
#X text 176 446 is signal power and "m" is mask.;
#X obj 131 332 -~;
#X obj 131 355 max~ 0;
#X obj 99 448 q8_sqrt~;
#X text 175 464 (zero if s < m).;
#X obj 144 256 tabreceive~ \$0-mask;
#X obj 76 72 tabreceive~ \$0-hann;
#X obj 69 590 tabreceive~ \$0-hann;
#N canvas 114 100 910 495 calculate-mask 0;
#X obj 125 379 inlet~;
#X msg 371 283 0;
#X msg 371 166 0;
#X obj 240 196 float;
#X obj 294 200 + 1;
#X obj 240 144 bang~;
#X obj 240 169 spigot;
#X floatatom 411 218 0 0 0 0 - - -;
#X obj 315 408 -~;
#X obj 371 258 sel 0;
#X obj 327 443 *~;
#X obj 293 443 +~;
#X floatatom 351 313 0 0 0 0 - - -;
#X obj 240 219 t f f;
#X obj 370 113 r make-mask;
#X obj 371 141 t b f;
#X obj 411 165 /;
#X text 483 212 number of;
#X text 491 227 frames;
#X floatatom 481 166 0 0 0 0 - - -;
#X obj 480 113 r window-msec;
#X obj 481 136 / 4;
#X text 521 133 hop size (analysis;
#X text 546 149 period) in msec;
#X obj 359 408 tabreceive~ \$0-mask;
#X obj 292 468 tabsend~ \$0-mask;
#X obj 371 218 <;
#X obj 235 258 expr 1/($f1+1);
#X text 134 17 calculate a mask using N msec of background noise;
#X text 43 354 current power (for each channel);
#X text 367 430 average the current power into the last mask to get
the new mask. The new value is weighted 1/n on the nth iteration.;
#X text 390 312 weight to average in new power to mask;
#X text 11 203 loop counting to desired;
#X text 78 219 number of frames;
#X text 72 39 This loops for "make-mask" milliseconds \, averaging
power in each channel over that amount of time. This is done by a moving
average whose weight is adjusted to average each new value equally
with each of the accumulating ones.;
#X connect 0 0 8 0;
#X connect 1 0 12 0;
#X connect 2 0 3 1;
#X connect 2 0 26 0;
#X connect 3 0 13 0;
#X connect 3 0 4 0;
#X connect 4 0 3 1;
#X connect 5 0 6 0;
#X connect 6 0 3 0;
#X connect 7 0 26 1;
#X connect 8 0 10 0;
#X connect 9 0 1 0;
#X connect 10 0 11 1;
#X connect 11 0 25 0;
#X connect 12 0 10 1;
#X connect 13 0 26 0;
#X connect 13 1 27 0;
#X connect 14 0 15 0;
#X connect 15 0 2 0;
#X connect 15 1 16 0;
#X connect 16 0 7 0;
#X connect 20 0 21 0;
#X connect 21 0 16 1;
#X connect 21 0 19 0;
#X connect 24 0 8 1;
#X connect 24 0 11 0;
#X connect 26 0 6 1;
#X connect 26 0 9 0;
#X connect 27 0 12 0;
#X restore 132 203 pd calculate-mask;
#X text 91 98 real Fourier transform;
#X obj 357 57 loadbang;
#X msg 357 80 \; pd dsp 1 \; window-size 1024;
#X text 193 355 ... but not less than zero;
#X text 101 561 real inverse Fourier transform;
#X text 196 498 normalize by 2/(3N) where N is window size;
#X text 168 332 current power ("s") minus level-adjusted mask ("m")
;
#X text 156 175 compute power (call it "s") in each channel;
#X obj 123 395 +~ 1e-20;
#X text 203 395 protect against division by zero;
#X text 179 426 compute sqrt((s-m)/s) where "s";
#X text 296 204 <- subwindow calculates noise mask;
#X obj 98 499 /~ 1536;
#X connect 0 0 9 0;
#X connect 1 0 16 1;
#X connect 2 0 11 1;
#X connect 3 0 7 0;
#X connect 4 0 8 1;
#X connect 5 0 3 0;
#X connect 6 0 8 0;
#X connect 7 0 6 0;
#X connect 7 0 10 0;
#X connect 7 0 10 1;
#X connect 7 1 4 0;
#X connect 7 1 2 0;
#X connect 7 1 2 1;
#X connect 8 0 0 0;
#X connect 10 0 11 0;
#X connect 11 0 16 0;
#X connect 11 0 23 0;
#X connect 11 0 32 0;
#X connect 12 0 1 1;
#X connect 13 0 18 0;
#X connect 16 0 17 0;
#X connect 17 0 13 0;
#X connect 18 0 36 0;
#X connect 20 0 1 0;
#X connect 21 0 3 1;
#X connect 22 0 0 1;
#X connect 25 0 26 0;
#X connect 32 0 13 1;
#X connect 36 0 6 1;
#X connect 36 0 4 1;
#X restore -6 104 pd fft-analysis;
#N canvas 30 119 565 454 hann-window 0;
#N canvas 0 22 450 300 (subpatch) 0;
#X array \$0-hann 1024 float 0;
#X coords 0 1 1023 0 300 100 1;
#X restore 82 311 graph;
#X obj 378 165 osc~;
#X obj 378 190 *~ -0.5;
#X obj 378 214 +~ 0.5;
#X obj 331 247 tabwrite~ \$0-hann;
#X obj 37 88 r window-size;
#X obj 38 173 /;
#X obj 127 142 samplerate~;
#X obj 38 251 s window-sec;
#X obj 177 204 swap;
#X obj 177 228 /;
#X obj 177 252 s window-hz;
#X obj 49 201 * 1000;
#X obj 49 228 s window-msec;
#X obj 38 115 t f b f;
#X msg 173 92 resize \$1;
#X obj 173 116 s \$0-hann;
#X obj 330 105 r window-hz;
#X msg 382 130 0;
#X obj 330 131 t f b;
#X text 15 8 calculate Hann window table (variable window size) and
constants window-hz (fundamental frequency of analysis) \, window-sec
and window-msec (analysis window size in seconds and msec).;
#X connect 1 0 2 0;
#X connect 2 0 3 0;
#X connect 3 0 4 0;
#X connect 5 0 14 0;
#X connect 6 0 8 0;
#X connect 6 0 12 0;
#X connect 7 0 6 1;
#X connect 7 0 9 1;
#X connect 9 0 10 0;
#X connect 9 1 10 1;
#X connect 10 0 11 0;
#X connect 12 0 13 0;
#X connect 14 0 6 0;
#X connect 14 0 9 0;
#X connect 14 1 7 0;
#X connect 14 2 15 0;
#X connect 15 0 16 0;
#X connect 17 0 19 0;
#X connect 18 0 1 1;
#X connect 19 0 1 0;
#X connect 19 1 4 0;
#X connect 19 1 18 0;
#X restore 116 30 pd hann-window;
#X obj 136 152 s mask-level;
#N canvas 0 22 592 442 mask-table 0;
#N canvas 0 22 450 300 (subpatch) 0;
#X array \$0-mask 512 float 0;
#X coords 0 500 511 0 400 300 1;
#X restore 110 76 graph;
#X text 25 14 This table (1368-mask) is the average power measured
in each channel of the spectrum \, presumed to represent the noise
floor.;
#X restore 116 52 pd mask-table;
#X obj -6 77 inlet~;
#X obj -6 128 outlet~;
#X obj 100 100 bng 20 250 50 0 empty empty empty 17 7 0 10 -262144
-1 -1;
#X obj 125 110 hsl 40 10 0 20 0 0 empty empty empty -2 -8 0 10 -262144
-1 -1 0 1;
#X obj 125 100 hsl 40 10 1000 5000 0 0 empty empty empty -2 -8 0 10
-258113 -262144 -262144 0 1;
#X obj 100 152 f;
#X msg 100 174 \; make-mask $f1;
#X connect 0 0 3 0;
#X connect 1 0 6 0;
#X connect 5 0 1 0;
#X connect 7 0 10 0;
#X connect 8 0 0 0;
#X connect 9 0 10 1;
#X connect 10 0 11 0;
#X coords 0 -1 1 1 67 20 2 100 100;
