#N canvas 482 162 446 538 10;
#X obj 181 578 /~;
#X obj 166 605 *~;
#N canvas 73 271 327 386 mapping 0;
#X obj 94 8 inlet~;
#X obj 24 327 outlet~;
#X obj 109 128 r \$0-factor;
#X obj 7 8 r \$0-exponent;
#X obj 145 8 r \$0-clip;
#X floatatom 152 58 5 0 0 0 - - -;
#X floatatom 119 176 5 0 0 0 - - -;
#X floatatom 16 38 8 0 0 0 - - -;
#X obj 94 103 clip~ 0 2;
#X obj 94 271 clip~ 1e-07 1;
#X text 18 352 \$0-exponent and \$0-clip come frome [pd exponent];
#N canvas 0 22 150 189 sin~ 0;
#X obj 39 38 inlet~;
#X obj 39 69 -~ 0.25;
#X obj 39 100 cos~;
#X obj 39 127 outlet~;
#X connect 0 0 1 0;
#X connect 1 0 2 0;
#X connect 2 0 3 0;
#X restore 94 246 pd sin~;
#X obj 7 95 line~;
#X msg 7 64 \$1 100;
#X obj 94 223 *~;
#X msg 145 34 \$1 200;
#X msg 109 151 \$1 200;
#X obj 145 79 line 1 5;
#X obj 109 199 line~ 1 5;
#X obj 24 298 cyclone/pow~;
#X connect 0 0 8 0;
#X connect 2 0 16 0;
#X connect 3 0 7 0;
#X connect 3 0 13 0;
#X connect 4 0 15 0;
#X connect 8 0 14 0;
#X connect 9 0 19 1;
#X connect 11 0 9 0;
#X connect 12 0 19 0;
#X connect 13 0 12 0;
#X connect 14 0 11 0;
#X connect 15 0 5 0;
#X connect 15 0 17 0;
#X connect 16 0 6 0;
#X connect 16 0 18 0;
#X connect 17 0 8 2;
#X connect 18 0 14 1;
#X connect 19 0 1 0;
#X restore 181 553 pd mapping;
#X obj 121 697 outlet~;
#X obj 121 276 inlet~;
#X obj 121 606 *~;
#X obj 121 636 *~ 0.707;
#X floatatom 194 300 5 0 0 0 - - -;
#X text 174 697 audio;
#X floatatom 267 493 8 0 0 0 - - -;
#X text 180 368 quadrature transformer;
#N canvas 288 22 381 415 exponent 0;
#X floatatom 232 155 8 0 0 0 - - -;
#X floatatom 42 313 8 0 0 0 - - -;
#X obj 218 248 t b f;
#X text 171 297 1.5708 = pi/2;
#X text 98 313 exponent;
#X obj 218 125 dbtorms;
#X floatatom 236 51 5 0 0 0 - - -;
#X obj 218 103 + 100;
#X obj 218 80 clip -96 -20;
#X text 289 156 magnitude;
#X text 273 50 deciBel;
#X obj 20 70 clip 0.8 8;
#X obj 218 22 inlet;
#X text 216 0 compander point;
#X obj 20 20 inlet;
#X obj 20 280 expr log($f2)/log(sin($f1*$f2*1.5708));
#X obj 34 249 s \$0-factor;
#X obj 20 338 s \$0-exponent;
#X obj 34 226 * 0.25;
#X obj 49 99 t b f;
#X obj 49 148 /;
#X msg 49 123 1;
#X obj 49 199 s \$0-clip;
#X text 18 364 the parameters factor \, exponent and clip are used
in the patch [pd mapping];
#X floatatom 56 176 5 0 0 0 - - -;
#X msg 73 46 1;
#X obj 73 20 loadbang;
#X msg 107 46 -96;
#X text 92 176 limiter start point;
#X text 17 1 compander factor;
#X connect 2 0 15 0;
#X connect 2 1 15 1;
#X connect 5 0 0 0;
#X connect 5 0 2 0;
#X connect 7 0 5 0;
#X connect 8 0 7 0;
#X connect 11 0 15 0;
#X connect 11 0 18 0;
#X connect 11 0 19 0;
#X connect 12 0 6 0;
#X connect 12 0 8 0;
#X connect 14 0 11 0;
#X connect 15 0 1 0;
#X connect 15 0 17 0;
#X connect 18 0 16 0;
#X connect 19 0 21 0;
#X connect 19 1 20 1;
#X connect 20 0 22 0;
#X connect 20 0 24 0;
#X connect 21 0 20 0;
#X connect 25 0 11 0;
#X connect 26 0 27 0;
#X connect 26 0 25 0;
#X connect 27 0 8 0;
#X restore 185 326 pd exponent;
#N canvas 0 22 186 218 pyth~ 0;
#X obj 35 25 inlet~;
#X obj 98 25 inlet~;
#X obj 35 69 *~;
#X obj 98 69 *~;
#X obj 35 129 sqrt~;
#X obj 35 100 +~;
#X obj 35 163 outlet~;
#X connect 0 0 2 0;
#X connect 0 0 2 1;
#X connect 1 0 3 0;
#X connect 1 0 3 1;
#X connect 2 0 5 0;
#X connect 3 0 5 1;
#X connect 4 0 6 0;
#X connect 5 0 4 0;
#X restore 196 413 pd pyth~;
#X text 120 238 audio;
#N canvas 427 191 493 331 olli~ 0;
#X obj 264 85 delay~ 1 1;
#X obj 264 56 inlet~;
#X obj 39 237 outlet~;
#X obj 264 239 outlet~;
#X text 37 289 y[n]=b1*y[n-1]+b2*y[n-2]+a0*x[n]+a1*x[n-1]+a2*x[n-2]
;
#X text 36 270 Pd's biquad:;
#X obj 39 112 biquad~ 0 0.161758 0.161758 0 -1;
#X obj 39 141 biquad~ 0 0.733029 0.733029 0 -1;
#X obj 39 173 biquad~ 0 0.94535 0.94535 0 -1;
#X obj 39 200 biquad~ 0 0.990598 0.990598 0 -1;
#X obj 264 112 biquad~ 0 0.479401 0.479401 0 -1;
#X obj 264 142 biquad~ 0 0.876218 0.876218 0 -1;
#X obj 264 174 biquad~ 0 0.976599 0.976599 0 -1;
#X obj 264 202 biquad~ 0 0.9975 0.9975 0 -1;
#X text 91 238 first phase;
#X text 320 238 second phase;
#X text 167 238 << 90 degree >>;
#X text 40 25 Olli Niemitalo's quadrature transformer coefficients
;
#X connect 0 0 10 0;
#X connect 1 0 0 0;
#X connect 1 0 6 0;
#X connect 6 0 7 0;
#X connect 7 0 8 0;
#X connect 8 0 9 0;
#X connect 9 0 2 0;
#X connect 10 0 11 0;
#X connect 11 0 12 0;
#X connect 12 0 13 0;
#X connect 13 0 3 0;
#X restore 121 370 pd olli~;
#X obj 196 438 clip~ 1e-05 100;
#X obj 253 468 pow 5;
#X obj 196 493 lop~ 20000;
#X text 251 550 compander curve;
#X text 317 524 bridge amplitude modulation;
#X text 297 438 prevent division by zero!;
#X text 260 415 compute instantaneous amplitudes;
#X obj 420 305 clip 20 1000;
#X floatatom 257 302 5 0 0 0 - - -;
#X floatatom 347 328 5 0 0 0 - - -;
#X floatatom 420 330 5 0 0 0 - - -;
#X text 319 494 slow down response;
#X text 256 606 [qompander~] quadrature compander;
#X text 292 303 dB;
#X obj 339 376 line;
#X msg 339 351 \$1 100;
#X obj 339 305 clip 1 7.39;
#N canvas 0 22 281 177 ratio 0;
#X obj 30 29 inlet;
#X obj 177 52 samplerate~;
#X obj 30 99 expr exp((-1000/$f2)/$f1);
#X obj 177 26 loadbang;
#X text 72 42 time;
#X text 71 26 recovery;
#X obj 30 133 outlet;
#X text 77 132 ratio;
#X obj 30 72 clip 20 1000;
#X connect 0 0 8 0;
#X connect 1 0 2 1;
#X connect 2 0 6 0;
#X connect 3 0 1 0;
#X connect 8 0 2 0;
#X restore 426 371 pd ratio;
#X obj 196 524 iemlib/peakenv~ 20;
#X obj 426 393 nbx 5 14 -1e+37 1e+37 0 0 empty empty empty 0 -8 0 10
-262144 -1 -1 0.998867 256;
#X obj 121 664 clip~ -1 1;
#X text 194 664 needed for punch settings;
#X obj 103 100 hsl 80 10 0.8 8 0 0 empty factor empty 20 5 0 8 -262144
-260097 -1 0 0;
#X obj 103 110 hsl 80 10 -96 -20 0 0 empty point empty 20 8 0 10 -262144
-260097 -1 7900 0;
#X obj 103 120 hsl 80 10 7.39 1 0 0 empty response empty 20 8 0 10
-262144 -260097 -1 7900 0;
#X obj 103 130 hsl 80 10 20 400 0 0 empty recovery empty 20 8 0 10
-262144 -260097 -1 0 0;
#X obj 245 60 f \$2;
#X obj 175 60 f \$1;
#X obj 325 60 f \$3;
#X obj 281 23 loadbang;
#X obj 395 59 f \$4;
#X text 658 115 punch;
#X text 664 198 suck;
#X text 527 117 gate;
#X text 525 30 limiter;
#X text 526 47 only;
#X text 660 38 gate;
#X msg 571 92 \; factor 4 \; point -70 \; response 3 \; recovery 20
\;;
#X msg 571 12 \; factor 3 \; point -20 \; response 7.3 \; recovery
20 \;;
#X msg 434 93 \; factor 1 \; point -20 \; response 7.39 \; recovery
20 \;;
#X msg 571 174 \; factor 4 \; point -96 \; response 7.39 \; recovery
200 \;;
#X msg 435 12 \; factor 0.8 \; point -96 \; response 7.39 \; recovery
20 \;;
#X connect 0 0 1 1;
#X connect 0 0 5 1;
#X connect 1 0 6 0;
#X connect 2 0 0 0;
#X connect 4 0 14 0;
#X connect 5 0 6 0;
#X connect 6 0 35 0;
#X connect 12 0 15 0;
#X connect 14 0 5 0;
#X connect 14 0 12 0;
#X connect 14 1 1 0;
#X connect 14 1 12 1;
#X connect 15 0 17 0;
#X connect 16 0 9 0;
#X connect 16 0 17 1;
#X connect 17 0 33 0;
#X connect 22 0 25 0;
#X connect 22 0 33 1;
#X connect 25 0 32 0;
#X connect 29 0 16 0;
#X connect 30 0 29 0;
#X connect 31 0 24 0;
#X connect 31 0 30 0;
#X connect 32 0 34 0;
#X connect 33 0 2 0;
#X connect 33 0 0 1;
#X connect 35 0 3 0;
#X connect 37 0 11 0;
#X connect 38 0 11 1;
#X connect 39 0 31 0;
#X connect 40 0 22 0;
#X connect 41 0 38 0;
#X connect 42 0 37 0;
#X connect 43 0 39 0;
#X connect 44 0 41 0;
#X connect 44 0 42 0;
#X connect 44 0 43 0;
#X connect 44 0 45 0;
#X connect 45 0 40 0;
#X coords 0 -1 1 1 85 40 2 100 100;
