#N canvas 157 31 732 658 10;
#X obj 451 -81 + 100;
#X obj 451 -57 dbtorms;
#X msg 174 307 lowpass;
#X msg 174 327 highpass;
#X msg 237 359 lowshelf;
#X msg 237 379 highshelf;
#X msg 174 347 bandpass;
#X msg 174 367 resonant;
#X msg 239 320 notch;
#X msg 237 339 peaking;
#X obj 410 94 line~;
#X msg 451 69 \$1 100;
#X obj 451 93 line~;
#X floatatom 451 -32 5 0 0 0 - - -;
#X text 497 -27 Q - refers to resonance for lowpass \, highpass \,
and resonant. Refers to bandwidth for bandpass \, notch \, peaking
\, and allpass. Refers to slope for highshelf and lowshelf.;
#X text 535 -111 The gain of the resonance is equal to Q. By convention
\, -3dB means no resonance for lowpass and highpass.;
#X obj 395 197 *~ 0.2;
#X text 584 35 Gain (in dB) for peaking \, lowshelf \, and highshelf
;
#X msg 498 69 \$1 100;
#X obj 498 93 line~;
#X obj 567 310 inlet;
#X obj 100 115 hradio 12 1 0 8 \$0-filtertype empty empty 0 -8 0 10
-262144 -1 -1 0;
#X obj 17 84 loadbang;
#X obj 103 136 hsl 91 10 -25 25 0 0 \$0-gainQ empty empty -2 -8 0 10
-258072 -1 -1 3960 1;
#X obj 103 146 hsl 91 10 -15 15 0 0 \$0-gain empty empty -2 -8 0 10
-196563 -1 -1 0 1;
#N canvas 137 150 806 550 filterplot 0;
#X obj 252 41 inlet~;
#X obj 252 165 snapshot~;
#X obj 322 41 inlet~;
#X obj 322 165 snapshot~;
#X obj 392 41 inlet~;
#X obj 392 165 snapshot~;
#X obj 462 41 inlet~;
#X obj 462 165 snapshot~;
#X obj 532 41 inlet~;
#X obj 532 165 snapshot~;
#X obj 252 207 change;
#X obj 322 200 change;
#X obj 392 200 change;
#X obj 462 200 change;
#X obj 532 200 change;
#X obj 252 235 t f b;
#X obj 322 228 t f b;
#X obj 392 228 t f b;
#X obj 462 228 t f b;
#X obj 532 228 t f b;
#X obj 252 297 pack f f f f f;
#X obj 252 393 spigot;
#X obj 237 264 f;
#X msg 296 363 1;
#X obj 86 102 t b b;
#X obj 252 418 t l b;
#X msg 310 412 0;
#X obj 665 49 inlet;
#X msg 650 252 phase \$1;
#X obj 86 76 metro 50;
#X obj 80 -15 inlet;
#X obj 252 458 filterplot Filter-Response;
#X connect 0 0 1 0;
#X connect 1 0 10 0;
#X connect 2 0 3 0;
#X connect 3 0 11 0;
#X connect 4 0 5 0;
#X connect 5 0 12 0;
#X connect 6 0 7 0;
#X connect 7 0 13 0;
#X connect 8 0 9 0;
#X connect 9 0 14 0;
#X connect 10 0 15 0;
#X connect 11 0 16 0;
#X connect 12 0 17 0;
#X connect 13 0 18 0;
#X connect 14 0 19 0;
#X connect 15 0 22 1;
#X connect 15 1 23 0;
#X connect 16 0 20 1;
#X connect 16 1 23 0;
#X connect 17 0 20 2;
#X connect 17 1 23 0;
#X connect 18 0 20 3;
#X connect 18 1 23 0;
#X connect 19 0 20 4;
#X connect 19 1 23 0;
#X connect 20 0 21 0;
#X connect 21 0 25 0;
#X connect 22 0 20 0;
#X connect 23 0 21 1;
#X connect 24 0 22 0;
#X connect 24 1 9 0;
#X connect 24 1 7 0;
#X connect 24 1 5 0;
#X connect 24 1 3 0;
#X connect 24 1 1 0;
#X connect 25 0 31 0;
#X connect 25 1 26 0;
#X connect 26 0 21 1;
#X connect 27 0 28 0;
#X connect 28 0 31 1;
#X connect 29 0 24 0;
#X connect 30 0 29 0;
#X restore 546 205 pd filterplot;
#X obj 181 100 tgl 15 0 \$0-freq/phase empty empty 17 7 0 10 -101888
-1 -1 0 1;
#X text 619 163 plot phase response;
#X obj 395 173 mybiquad~;
#X obj 207 409 s \$0-message;
#X obj 524 119 r \$0-message;
#X obj 431 136 filtercoeff;
#X msg 410 70 \$1 10;
#X obj 165 50 loadbang;
#X obj 165 100 tgl 15 0 \$0-graph empty empty 17 7 0 10 -101888 -1
-1 1 1;
#X msg 165 71 1;
#X obj 567 337 route 1;
#X obj 176 266 route 0 1 2 3 4 5 6 7;
#X obj 457 -9 s Q;
#X obj 78 187 s gain;
#X obj 50 209 s frequency;
#X obj 103 127 hsl 91 10 20 20000 1 1 \$0-freq \$0-freqin empty 5 9
0 10 -101888 -1 -1 4600 0;
#X obj 614 408 expr ($f1 * -1)+1;
#X obj 149 100 tgl 15 0 \$0-showfreq empty empty 17 7 0 10 -262144
-1 -1 0 1;
#X obj 567 404 spigot;
#X obj 581 429 spigot;
#X obj 170 237 r \$0-filtertype;
#X obj 498 43 r \$0-gain;
#X obj 451 -108 r \$0-gainQ;
#X obj 410 27 r \$0-freq;
#X obj 100 100 tgl 15 0 \$0-bypass empty empty 17 7 0 10 -260097 -33289
-33289 0 1;
#X obj 116 100 tgl 15 0 \$0-listen empty empty 17 7 0 10 -258113 -262144
-262144 0 1;
#X obj 305 103 r \$0-bypass;
#X obj 266 147 spigot~;
#X obj 266 77 inlet~;
#X obj 460 325 *~;
#X obj 439 350 dac~;
#X obj 397 309 outlet~;
#X obj 475 284 r \$0-listen;
#X obj 546 149 r \$0-graph;
#X obj 621 182 r \$0-freq/phase;
#X obj 567 361 spigot;
#X obj 607 378 r \$0-showfreq;
#X obj 620 341 r \$0-gate;
#X obj 132 100 tgl 15 0 \$0-gate empty empty 17 7 0 10 -232651 -1 -1
0 1;
#X obj 567 486 s \$0-freqin;
#X obj 582 463 s \$0-freq;
#X msg 18 106 -3;
#X obj 476 305 sig~;
#X obj 396 244 *~ 1;
#X obj 305 125 expr ($f1 * -1)+1;
#X connect 0 0 1 0;
#X connect 1 0 13 0;
#X connect 2 0 29 0;
#X connect 3 0 29 0;
#X connect 4 0 29 0;
#X connect 5 0 29 0;
#X connect 6 0 29 0;
#X connect 7 0 29 0;
#X connect 8 0 29 0;
#X connect 9 0 29 0;
#X connect 10 0 31 0;
#X connect 11 0 12 0;
#X connect 12 0 31 1;
#X connect 13 0 11 0;
#X connect 13 0 38 0;
#X connect 16 0 69 0;
#X connect 18 0 19 0;
#X connect 19 0 31 2;
#X connect 20 0 36 0;
#X connect 22 0 67 0;
#X connect 24 0 39 0;
#X connect 28 0 16 0;
#X connect 30 0 31 3;
#X connect 31 0 25 1;
#X connect 31 0 28 1;
#X connect 31 1 25 2;
#X connect 31 1 28 2;
#X connect 31 2 25 3;
#X connect 31 2 28 3;
#X connect 31 3 25 4;
#X connect 31 3 28 4;
#X connect 31 4 25 5;
#X connect 31 4 28 5;
#X connect 32 0 10 0;
#X connect 33 0 35 0;
#X connect 35 0 34 0;
#X connect 36 0 61 0;
#X connect 37 0 2 0;
#X connect 37 1 3 0;
#X connect 37 2 6 0;
#X connect 37 3 7 0;
#X connect 37 4 8 0;
#X connect 37 5 9 0;
#X connect 37 6 4 0;
#X connect 37 7 5 0;
#X connect 41 0 40 0;
#X connect 42 0 45 1;
#X connect 44 0 65 0;
#X connect 45 0 66 0;
#X connect 46 0 37 0;
#X connect 47 0 18 0;
#X connect 48 0 0 0;
#X connect 49 0 32 0;
#X connect 52 0 70 0;
#X connect 53 0 69 0;
#X connect 53 1 28 0;
#X connect 54 0 53 0;
#X connect 55 0 56 1;
#X connect 58 0 68 0;
#X connect 59 0 25 0;
#X connect 60 0 25 6;
#X connect 61 0 44 0;
#X connect 61 0 45 0;
#X connect 62 0 44 1;
#X connect 62 0 42 0;
#X connect 63 0 61 1;
#X connect 67 0 23 0;
#X connect 68 0 55 1;
#X connect 69 0 55 0;
#X connect 69 0 57 0;
#X connect 70 0 53 1;
#X coords 0 -1 1 1 96 56 2 100 100;
