#N canvas 193 62 648 802 10;
#X obj 388 -111 inlet;
#X obj 8 56 loadbang;
#X msg 26 89 1;
#X obj 265 155 gainvu~ 300;
#X obj 265 213 gainvu~ 300;
#X msg -9 88 100;
#X obj 103 145 hsl 91 10 0 127 0 0 empty empty empty -2 -8 0 10 -196563
-1 -1 7087 1;
#X obj 438 51 +;
#X obj 402 51 -;
#X obj 504 71 + 100;
#X obj 504 91 dbtorms;
#X obj 103 135 hsl 91 10 -25 25 0 0 \$0-gainQ empty empty -2 -8 0 10
-258072 -1 -1 4680 1;
#X obj 504 111 s Q;
#X obj 265 130 lp2~ 20000;
#X obj 265 188 hp2~ 1;
#X obj 504 52 r \$0-gainQ;
#X obj 476 22 r \$0-band;
#X obj 266 51 r \$0-bypass;
#X obj 227 95 spigot~;
#X obj 227 30 inlet~;
#X obj 100 100 tgl 15 0 \$0-bypass empty empty 17 7 0 10 -260097 -33289
-33289 0 1;
#X obj 116 100 tgl 15 0 \$0-listen empty empty 17 7 0 10 -258113 -262144
-262144 0 1;
#X obj 132 100 tgl 15 0 \$0-gate empty empty 17 7 0 10 -232651 -1 -1
0 1;
#X obj 103 125 hsl 91 10 20 20000 1 1 \$0-freq \$0-freqin empty 5 9
0 10 -101888 -1 -1 5200 0;
#X obj 268 284 *~;
#X obj 247 309 dac~;
#X obj 284 243 r \$0-listen;
#X obj 284 264 sig~;
#X obj 228 267 *~ 1;
#X obj 229 336 outlet~;
#X obj 80 205 s gain;
#X obj 52 227 s frequency;
#X obj 412 155 r \$0-gain;
#X obj 402 17 spigot;
#X obj 435 -2 r \$0-gate;
#X obj 413 -29 spigot;
#X obj 446 -51 expr 1-$f1;
#X obj 388 -50 spigot;
#X obj 162 105 hradio 10 1 0 2 \$0-select empty empty 0 -8 0 10 -262144
-1 -1 0;
#X obj 461 -84 r \$0-select;
#X obj 266 73 expr ($f1 * -1)+1;
#X obj 388 -87 route 1 2;
#X obj 103 115 hsl 91 10 20 1000 1 1 \$0-band empty empty 5 9 0 10
-260097 -1 -1 6700 0;
#X obj 426 410 hp2_crit~;
#X obj 412 379 hp2_bess~;
#X obj 392 356 hp2_cheb~;
#X obj 370 326 hp2_butt~;
#X connect 0 0 41 0;
#X connect 1 0 2 0;
#X connect 1 0 5 0;
#X connect 2 0 11 0;
#X connect 3 0 14 0;
#X connect 4 0 28 0;
#X connect 5 0 6 0;
#X connect 6 0 30 0;
#X connect 7 0 14 1;
#X connect 8 0 13 1;
#X connect 9 0 10 0;
#X connect 10 0 12 0;
#X connect 10 0 13 2;
#X connect 10 0 14 2;
#X connect 13 0 3 0;
#X connect 14 0 4 0;
#X connect 15 0 9 0;
#X connect 16 0 8 1;
#X connect 16 0 7 1;
#X connect 17 0 40 0;
#X connect 18 0 28 0;
#X connect 18 1 13 0;
#X connect 19 0 18 0;
#X connect 23 0 31 0;
#X connect 24 0 25 1;
#X connect 26 0 27 0;
#X connect 27 0 24 1;
#X connect 28 0 24 0;
#X connect 28 0 29 0;
#X connect 32 0 4 1;
#X connect 32 0 3 1;
#X connect 33 0 8 0;
#X connect 33 0 7 0;
#X connect 34 0 33 1;
#X connect 35 0 33 0;
#X connect 36 0 35 1;
#X connect 37 0 33 0;
#X connect 39 0 37 1;
#X connect 39 0 36 0;
#X connect 40 0 18 1;
#X connect 41 0 37 0;
#X connect 41 1 35 0;
#X coords 0 -1 1 1 96 55 2 100 100;
