#N canvas 155 62 568 397 10;
#X obj 265 268 moog~;
#X msg 217 269 reset;
#X obj 277 142 +~ 1;
#X obj 277 183 +~ 100;
#X obj 277 121 osc~ 0.25;
#X obj 277 162 *~ 2000;
#X obj 318 252 sig~ 3;
#X text 33 6 A signal controlled "moog" resonant lowpass;
#X text 364 233 Q (1-4);
#X text 389 140 resonance freq modulation;
#X obj 103 145 hsl 91 10 1 4 0 0 \$0-Q empty empty -2 -8 0 10 -258072
-1 -1 0 1;
#X obj 103 135 hsl 91 10 1 1000 1 1 \$0-band empty empty 5 9 0 10 -258753
-1 -1 9000 0;
#X obj 103 125 hsl 91 10 20 20000 1 1 \$0-freq \$0-freqin empty 5 9
0 10 -101888 -1 -1 7400 0;
#X obj 103 115 hsl 91 10 1 1000 1 1 \$0-lfofreq empty empty 5 9 0 10
-59496 -1 -1 6900 0;
#X obj 318 206 r \$0-Q;
#X obj 318 228 i;
#X obj 339 167 r \$0-freq;
#X obj 277 72 r \$0-lfofreq;
#X obj 316 142 r \$0-band;
#X obj 277 96 / 100;
#X obj 382 -149 inlet;
#X obj 382 -122 route 1;
#X obj 429 -51 expr ($f1 * -1)+1;
#X obj 148 100 tgl 15 0 \$0-showfreq empty empty 17 7 0 10 -262144
-1 -1 0 1;
#X obj 382 -55 spigot;
#X obj 396 -30 spigot;
#X obj 100 100 tgl 15 0 \$0-bypass empty empty 17 7 0 10 -260097 -33289
-33289 0 1;
#X obj 116 100 tgl 15 0 \$0-listen empty empty 17 7 0 10 -258113 -262144
-262144 0 1;
#X obj 165 193 r \$0-bypass;
#X obj 126 237 spigot~;
#X obj 126 167 inlet~;
#X obj 270 445 *~;
#X obj 249 470 dac~;
#X obj 207 429 outlet~;
#X obj 285 404 r \$0-listen;
#X obj 382 -98 spigot;
#X obj 422 -81 r \$0-showfreq;
#X obj 435 -118 r \$0-gate;
#X obj 132 100 tgl 15 0 \$0-gate empty empty 17 7 0 10 -232651 -1 -1
0 1;
#X obj 382 27 s \$0-freqin;
#X obj 397 4 s \$0-freq;
#X obj 286 425 sig~;
#X obj 206 364 *~ 1;
#X obj 165 215 expr ($f1 * -1)+1;
#X text 166 99 MOOG;
#X obj 265 315 *~ 0.5;
#X connect 0 0 45 0;
#X connect 1 0 0 0;
#X connect 2 0 5 0;
#X connect 3 0 0 1;
#X connect 4 0 2 0;
#X connect 5 0 3 0;
#X connect 6 0 0 2;
#X connect 14 0 15 0;
#X connect 15 0 6 0;
#X connect 16 0 3 1;
#X connect 17 0 19 0;
#X connect 18 0 5 1;
#X connect 19 0 4 0;
#X connect 20 0 21 0;
#X connect 21 0 35 0;
#X connect 22 0 25 1;
#X connect 24 0 39 0;
#X connect 25 0 40 0;
#X connect 28 0 43 0;
#X connect 29 0 42 0;
#X connect 29 1 0 0;
#X connect 30 0 29 0;
#X connect 31 0 32 1;
#X connect 34 0 41 0;
#X connect 35 0 24 0;
#X connect 35 0 25 0;
#X connect 36 0 24 1;
#X connect 36 0 22 0;
#X connect 37 0 35 1;
#X connect 41 0 31 1;
#X connect 42 0 31 0;
#X connect 42 0 33 0;
#X connect 43 0 29 1;
#X connect 45 0 42 0;
#X coords 0 -1 1 1 96 55 2 100 100;
