#N canvas 392 160 553 462 10;
#X obj -34 128 inlet~;
#X obj 103 113 hsl 47 8 0.1 5 1 0 \$0-Q1 empty empty -2 -8 0 10 -258072
-1 -1 0 1;
#X obj 103 121 hsl 47 8 0.1 5 1 0 \$0-Q2 empty empty -2 -8 0 10 -258072
-1 -1 0 1;
#X obj 69 51 loadbang;
#X obj -69 417 outlet~;
#X obj -139 417 outlet~;
#X obj 249 264 unpack 0 0 0;
#X obj 100 100 hradio 13 1 0 4 \$0-instrument empty empty 0 -8 0 10
-262144 -1 -1 0;
#X msg 243 170 41 343 8000;
#X msg 254 196 82 1250 20000;
#X msg 267 220 120 785 8000;
#X msg 69 79 0;
#X obj 240 130 route 0 1 2 3;
#X obj -199 225 r \$0-Q1;
#X obj -197 330 r \$0-Q2;
#X obj 263 317 s \$0-cut;
#X obj 273 336 s \$0-lpf;
#X obj 253 297 s \$0-hpf;
#X obj -73 270 r \$0-hpf;
#X obj -83 338 r \$0-cut;
#X obj -73 239 r \$0-lpf;
#X obj -139 278 lp2_crit~;
#X obj -139 308 hp2_crit~;
#X obj -139 387 lp2_crit~;
#X obj -69 387 hp2_crit~;
#X obj 239 105 r \$0-instrument;
#X obj 14 277 lp2_crit~;
#X obj 14 307 hp2_crit~;
#X obj 84 277 lp2_crit~;
#X obj 84 307 hp2_crit~;
#X obj 85 417 outlet~;
#X obj 15 417 outlet~;
#X msg 172 183 2000 5000;
#X msg 192 201 240 500;
#X obj 39 232 unpack 0 0;
#X obj 109 232 unpack 0 0;
#X connect 0 0 21 0;
#X connect 0 0 26 0;
#X connect 0 0 28 0;
#X connect 3 0 11 0;
#X connect 6 0 17 0;
#X connect 6 1 15 0;
#X connect 6 2 16 0;
#X connect 8 0 6 0;
#X connect 9 0 6 0;
#X connect 10 0 6 0;
#X connect 11 0 1 0;
#X connect 11 0 2 0;
#X connect 12 0 8 0;
#X connect 12 1 9 0;
#X connect 12 1 33 0;
#X connect 12 1 32 0;
#X connect 12 2 10 0;
#X connect 13 0 21 2;
#X connect 13 0 22 2;
#X connect 14 0 24 2;
#X connect 14 0 23 2;
#X connect 18 0 22 1;
#X connect 19 0 23 1;
#X connect 19 0 24 1;
#X connect 20 0 21 1;
#X connect 21 0 22 0;
#X connect 22 0 23 0;
#X connect 22 0 24 0;
#X connect 23 0 5 0;
#X connect 24 0 4 0;
#X connect 25 0 12 0;
#X connect 26 0 27 0;
#X connect 27 0 31 0;
#X connect 28 0 29 0;
#X connect 29 0 30 0;
#X connect 32 0 34 0;
#X connect 33 0 35 0;
#X connect 34 0 27 1;
#X connect 34 1 26 1;
#X connect 35 0 29 1;
#X connect 35 1 28 1;
#X coords 0 -1 1 1 52 29 2 100 100;
