#N canvas 0 0 450 300 10;
#X obj 88 88 lop~ 3000;
#X obj 89 116 lop~ 3000;
#X obj 89 146 hip~ 300;
#X obj 89 173 hip~ 300;
#X obj 88 61 inlet~;
#X obj 90 202 outlet~;
#X connect 0 0 1 0;
#X connect 1 0 2 0;
#X connect 2 0 3 0;
#X connect 3 0 5 0;
#X connect 4 0 0 0;
