#N canvas 504 320 450 300 10;
#X obj 100 101 tgl 15 0 empty empty empty 17 7 0 10 -258072 -1 -1 0
1;
#X obj 62 125 spigot~;
#X obj 61 71 inlet~;
#X obj 144 202 outlet~;
#X obj 78 203 outlet~;
#X obj 128 40 loadbang;
#X msg 127 61 0;
#X obj 148 147 spigot~;
#X obj 147 93 inlet~;
#X connect 0 0 1 1;
#X connect 0 0 7 1;
#X connect 1 1 4 0;
#X connect 2 0 1 0;
#X connect 5 0 6 0;
#X connect 6 0 0 0;
#X connect 7 1 3 0;
#X connect 8 0 7 0;
#X coords 0 -1 1 1 17 17 2 100 100;
