#N canvas 0 22 450 300 10;
#X obj 100 100 tgl 22 0 empty empty empty 17 7 0 10 -131089 -262144
-262144 1 1;
#X obj 80 124 *~;
#X obj 63 68 adc~;
#X obj 77 177 outlet~;
#X obj 120 36 loadbang;
#X msg 120 61 1;
#X connect 0 0 1 1;
#X connect 1 0 3 0;
#X connect 2 0 1 0;
#X connect 4 0 5 0;
#X connect 5 0 0 0;
#X coords 0 -1 1 1 22 22 2 100 100;
