#N canvas 0 22 450 300 10;
#X obj 128 130 tgl 15 0 empty empty empty 17 7 0 10 -262144 -1 -1 1
1;
#X obj 152 127 expr ($f1*-1)+1;
#X obj 157 156 tgl 15 0 empty empty empty 17 7 0 10 -262144 -1 -1 0
1;
#X obj 156 191 spigot;
#X obj 114 213 spigot;
#X obj 100 100 hradio 10 1 0 2 empty empty empty 0 -8 0 10 -262144
-1 -1 1;
#X obj 76 53 inlet;
#X obj 123 243 outlet;
#X obj 146 269 outlet;
#X obj 302 37 inlet;
#X obj 200 268 outlet;
#X connect 0 0 1 0;
#X connect 0 0 3 1;
#X connect 1 0 2 0;
#X connect 2 0 4 1;
#X connect 2 0 10 0;
#X connect 3 0 8 0;
#X connect 4 0 7 0;
#X connect 5 0 0 0;
#X connect 6 0 3 0;
#X connect 6 0 4 0;
#X connect 9 0 5 0;
#X coords 0 -1 1 1 20 10 2 100 100;
