#N canvas 0 22 450 300 10;
#X obj -90 80 inlet~;
#X obj -35 145 *~;
#X obj 130 101 tgl 15 0 empty empty empty 17 7 0 10 -262144 -1 -1 0
1;
#X obj -70 147 *~;
#X obj 115 101 tgl 15 0 empty empty empty 17 7 0 10 -262144 -1 -1 0
1;
#X obj -130 139 *~;
#X obj 100 101 tgl 15 0 empty empty empty 17 7 0 10 -262144 -1 -1 0
1;
#X obj 0 149 *~;
#X obj 145 101 tgl 15 0 empty empty empty 17 7 0 10 -262144 -1 -1 0
1;
#X obj -105 249 outlet~;
#X obj -95 259 outlet~;
#X obj -85 269 outlet~;
#X obj -75 279 outlet~;
#X obj -80 90 inlet~;
#X obj -25 155 *~;
#X obj 130 116 tgl 15 0 empty empty empty 17 7 0 10 -262144 -1 -1 0
1;
#X obj -60 157 *~;
#X obj 115 116 tgl 15 0 empty empty empty 17 7 0 10 -262144 -1 -1 0
1;
#X obj -120 149 *~;
#X obj 100 116 tgl 15 0 empty empty empty 17 7 0 10 -262144 -1 -1 0
1;
#X obj 207 265 *~;
#X obj 145 116 tgl 15 0 empty empty empty 17 7 0 10 -262144 -1 -1 0
1;
#X obj -70 100 inlet~;
#X obj 180 281 *~;
#X obj 130 131 tgl 15 0 empty empty empty 17 7 0 10 -262144 -1 -1 0
1;
#X obj 145 283 *~;
#X obj 115 131 tgl 15 0 empty empty empty 17 7 0 10 -262144 -1 -1 0
1;
#X obj -97 167 *~;
#X obj 100 131 tgl 15 0 empty empty empty 17 7 0 10 -262144 -1 -1 0
1;
#X obj 215 285 *~;
#X obj 145 131 tgl 15 0 empty empty empty 17 7 0 10 -262144 -1 -1 0
1;
#X obj -60 110 inlet~;
#X obj 190 291 *~;
#X obj 130 146 tgl 15 0 empty empty empty 17 7 0 10 -262144 -1 -1 0
1;
#X obj 155 293 *~;
#X obj 115 146 tgl 15 0 empty empty empty 17 7 0 10 -262144 -1 -1 0
1;
#X obj 122 294 *~;
#X obj 100 146 tgl 15 0 empty empty empty 17 7 0 10 -262144 -1 -1 0
1;
#X obj 225 295 *~;
#X obj 145 146 tgl 15 0 empty empty empty 17 7 0 10 -262144 -1 -1 0
1;
#X connect 0 0 1 0;
#X connect 0 0 3 0;
#X connect 0 0 5 0;
#X connect 0 0 7 0;
#X connect 1 0 11 0;
#X connect 2 0 1 1;
#X connect 3 0 10 0;
#X connect 4 0 3 1;
#X connect 5 0 9 0;
#X connect 6 0 5 1;
#X connect 7 0 12 0;
#X connect 8 0 7 1;
#X connect 13 0 14 0;
#X connect 13 0 16 0;
#X connect 13 0 18 0;
#X connect 13 0 20 0;
#X connect 14 0 11 0;
#X connect 15 0 14 1;
#X connect 16 0 10 0;
#X connect 17 0 16 1;
#X connect 18 0 9 0;
#X connect 19 0 18 1;
#X connect 20 0 12 0;
#X connect 21 0 20 1;
#X connect 22 0 23 0;
#X connect 22 0 25 0;
#X connect 22 0 27 0;
#X connect 22 0 29 0;
#X connect 23 0 11 0;
#X connect 24 0 23 1;
#X connect 25 0 10 0;
#X connect 26 0 25 1;
#X connect 27 0 9 0;
#X connect 28 0 27 1;
#X connect 29 0 12 0;
#X connect 30 0 29 1;
#X connect 31 0 32 0;
#X connect 31 0 34 0;
#X connect 31 0 36 0;
#X connect 31 0 38 0;
#X connect 32 0 11 0;
#X connect 33 0 32 1;
#X connect 34 0 10 0;
#X connect 35 0 34 1;
#X connect 36 0 9 0;
#X connect 37 0 36 1;
#X connect 38 0 12 0;
#X connect 39 0 38 1;
#X coords 0 -1 1 1 60 63 1 100 100;
