#N canvas 98 120 450 300 10;
#X obj 101 101 tgl 15 0 empty empty empty 17 7 0 10 -196563 -66577
-66577 1 1;
#X obj 59 71 inlet~;
#X obj 60 181 outlet~;
#X obj 60 125 *~;
#X connect 0 0 3 1;
#X connect 1 0 3 0;
#X connect 3 0 2 0;
#X coords 0 -1 1 1 17 17 2 100 100;
