#N canvas 290 217 450 300 10;
#X obj 100 100 tgl 22 0 empty empty empty 17 7 0 10 -66577 -262144
-262144 0 1;
#X obj 58 70 inlet~;
#X obj 59 124 *~;
#X obj 59 180 dac~;
#X connect 0 0 2 1;
#X connect 1 0 2 0;
#X connect 2 0 3 0;
#X coords 0 -1 1 1 22 22 2 100 100;
