#N canvas 302 94 694 605 10;
#X obj -74 369 route 0 1 2 3;
#X obj -125 349 inlet~;
#X obj -78 414 t 1;
#X obj -60 436 t 0;
#X obj -100 458 *~;
#X obj -90 468 *~;
#X obj -80 478 *~;
#X obj -70 488 *~;
#X obj -38 414 t 1;
#X obj -20 436 t 0;
#X obj 2 414 t 1;
#X obj 20 436 t 0;
#X obj 42 414 t 1;
#X obj 60 436 t 0;
#X obj 47 200 route 0 1 2 3;
#X obj 24 157 inlet~;
#X obj 43 245 t 1;
#X obj 61 267 t 0;
#X obj 21 289 *~;
#X obj 31 299 *~;
#X obj 41 309 *~;
#X obj 51 319 *~;
#X obj 83 245 t 1;
#X obj 101 267 t 0;
#X obj 123 245 t 1;
#X obj 141 267 t 0;
#X obj 163 245 t 1;
#X obj 181 267 t 0;
#X obj 147 587 route 0 1 2 3;
#X obj 80 545 inlet~;
#X obj 143 632 t 1;
#X obj 161 654 t 0;
#X obj 121 676 *~;
#X obj 131 686 *~;
#X obj 141 696 *~;
#X obj 151 706 *~;
#X obj 183 632 t 1;
#X obj 201 654 t 0;
#X obj 223 632 t 1;
#X obj 241 654 t 0;
#X obj 263 632 t 1;
#X obj 281 654 t 0;
#X obj 284 430 route 0 1 2 3;
#X obj 217 388 inlet~;
#X obj 280 475 t 1;
#X obj 298 497 t 0;
#X obj 258 519 *~;
#X obj 268 529 *~;
#X obj 278 539 *~;
#X obj 288 549 *~;
#X obj 320 475 t 1;
#X obj 338 497 t 0;
#X obj 360 475 t 1;
#X obj 378 497 t 0;
#X obj 400 475 t 1;
#X obj 418 497 t 0;
#X obj 101 101 vradio 12 1 0 4 empty empty empty 0 -8 0 10 -262144
-1 -1 2;
#X obj -114 535 outlet~;
#X obj 113 729 outlet~;
#X obj 22 350 outlet~;
#X obj 113 101 vradio 12 1 0 4 empty empty empty 0 -8 0 10 -262144
-1 -1 0;
#X obj 273 587 outlet~;
#X obj 125 101 vradio 12 1 0 4 empty empty empty 0 -8 0 10 -262144
-1 -1 1;
#X obj 137 101 vradio 12 1 0 4 empty empty empty 0 -8 0 10 -262144
-1 -1 2;
#X connect 0 0 2 0;
#X connect 0 0 3 0;
#X connect 0 1 8 0;
#X connect 0 1 9 0;
#X connect 0 2 10 0;
#X connect 0 2 11 0;
#X connect 0 3 12 0;
#X connect 0 3 13 0;
#X connect 1 0 4 0;
#X connect 1 0 32 0;
#X connect 1 0 18 0;
#X connect 1 0 46 0;
#X connect 2 0 4 1;
#X connect 3 0 5 1;
#X connect 3 0 6 1;
#X connect 3 0 7 1;
#X connect 4 0 57 0;
#X connect 5 0 57 0;
#X connect 6 0 57 0;
#X connect 7 0 57 0;
#X connect 8 0 5 1;
#X connect 9 0 7 1;
#X connect 9 0 6 1;
#X connect 9 0 4 1;
#X connect 10 0 6 1;
#X connect 11 0 7 1;
#X connect 11 0 4 1;
#X connect 11 0 5 1;
#X connect 12 0 7 1;
#X connect 13 0 6 1;
#X connect 13 0 5 1;
#X connect 13 0 4 1;
#X connect 14 0 16 0;
#X connect 14 0 17 0;
#X connect 14 1 22 0;
#X connect 14 1 23 0;
#X connect 14 2 24 0;
#X connect 14 2 25 0;
#X connect 14 3 26 0;
#X connect 14 3 27 0;
#X connect 15 0 19 0;
#X connect 15 0 5 0;
#X connect 15 0 33 0;
#X connect 15 0 47 0;
#X connect 16 0 18 1;
#X connect 17 0 19 1;
#X connect 17 0 20 1;
#X connect 17 0 21 1;
#X connect 18 0 59 0;
#X connect 19 0 59 0;
#X connect 20 0 59 0;
#X connect 21 0 59 0;
#X connect 22 0 19 1;
#X connect 23 0 21 1;
#X connect 23 0 20 1;
#X connect 23 0 18 1;
#X connect 24 0 20 1;
#X connect 25 0 21 1;
#X connect 25 0 18 1;
#X connect 25 0 19 1;
#X connect 26 0 21 1;
#X connect 27 0 20 1;
#X connect 27 0 19 1;
#X connect 27 0 18 1;
#X connect 28 0 30 0;
#X connect 28 0 31 0;
#X connect 28 1 36 0;
#X connect 28 1 37 0;
#X connect 28 2 38 0;
#X connect 28 2 39 0;
#X connect 28 3 40 0;
#X connect 28 3 41 0;
#X connect 29 0 34 0;
#X connect 29 0 6 0;
#X connect 29 0 48 0;
#X connect 29 0 20 0;
#X connect 30 0 32 1;
#X connect 31 0 33 1;
#X connect 31 0 34 1;
#X connect 31 0 35 1;
#X connect 32 0 58 0;
#X connect 33 0 58 0;
#X connect 34 0 58 0;
#X connect 35 0 58 0;
#X connect 36 0 33 1;
#X connect 37 0 35 1;
#X connect 37 0 34 1;
#X connect 37 0 32 1;
#X connect 38 0 34 1;
#X connect 39 0 35 1;
#X connect 39 0 32 1;
#X connect 39 0 33 1;
#X connect 40 0 35 1;
#X connect 41 0 34 1;
#X connect 41 0 33 1;
#X connect 41 0 32 1;
#X connect 42 0 44 0;
#X connect 42 0 45 0;
#X connect 42 1 50 0;
#X connect 42 1 51 0;
#X connect 42 2 52 0;
#X connect 42 2 53 0;
#X connect 42 3 54 0;
#X connect 42 3 55 0;
#X connect 43 0 49 0;
#X connect 43 0 7 0;
#X connect 43 0 21 0;
#X connect 43 0 35 0;
#X connect 44 0 46 1;
#X connect 45 0 47 1;
#X connect 45 0 48 1;
#X connect 45 0 49 1;
#X connect 46 0 61 0;
#X connect 47 0 61 0;
#X connect 48 0 61 0;
#X connect 49 0 61 0;
#X connect 50 0 47 1;
#X connect 51 0 49 1;
#X connect 51 0 48 1;
#X connect 51 0 46 1;
#X connect 52 0 48 1;
#X connect 53 0 49 1;
#X connect 53 0 46 1;
#X connect 53 0 47 1;
#X connect 54 0 49 1;
#X connect 55 0 48 1;
#X connect 55 0 47 1;
#X connect 55 0 46 1;
#X connect 56 0 0 0;
#X connect 60 0 14 0;
#X connect 62 0 28 0;
#X connect 63 0 42 0;
#X coords 0 -1 1 1 50 50 2 100 100;
