#N canvas 0 22 694 605 10;
#X obj 101 101 hradio 12 1 0 4 empty empty empty 0 -8 0 10 -262144
-1 -1 0;
#X obj -74 229 route 0 1 2 3;
#X obj -141 187 inlet~;
#X obj -78 274 t 1;
#X obj -60 296 t 0;
#X obj -100 318 *~;
#X obj -90 328 *~;
#X obj -80 338 *~;
#X obj -70 348 *~;
#X obj -38 274 t 1;
#X obj -20 296 t 0;
#X obj 2 274 t 1;
#X obj 20 296 t 0;
#X obj 42 274 t 1;
#X obj 60 296 t 0;
#X obj 60 345 outlet~;
#X obj 70 355 outlet~;
#X obj 80 365 outlet~;
#X obj 90 375 outlet~;
#X connect 0 0 1 0;
#X connect 1 0 3 0;
#X connect 1 0 4 0;
#X connect 1 1 9 0;
#X connect 1 1 10 0;
#X connect 1 2 11 0;
#X connect 1 2 12 0;
#X connect 1 3 13 0;
#X connect 1 3 14 0;
#X connect 2 0 5 0;
#X connect 2 0 6 0;
#X connect 2 0 7 0;
#X connect 2 0 8 0;
#X connect 3 0 5 1;
#X connect 4 0 6 1;
#X connect 4 0 7 1;
#X connect 4 0 8 1;
#X connect 5 0 15 0;
#X connect 6 0 16 0;
#X connect 7 0 17 0;
#X connect 8 0 18 0;
#X connect 9 0 6 1;
#X connect 10 0 8 1;
#X connect 10 0 7 1;
#X connect 10 0 5 1;
#X connect 11 0 7 1;
#X connect 12 0 8 1;
#X connect 12 0 5 1;
#X connect 12 0 6 1;
#X connect 13 0 8 1;
#X connect 14 0 7 1;
#X connect 14 0 6 1;
#X connect 14 0 5 1;
#X coords 0 -1 1 1 50 14 2 100 100;
