#N canvas 388 144 450 300 10;
#X obj 100 101 tgl 15 0 empty empty empty 17 7 0 10 -232651 -1 -1 0
1;
#X obj 128 40 loadbang;
#X msg 127 61 0;
#X obj 61 71 inlet;
#X obj 62 200 outlet;
#X obj 61 125 spigot;
#X connect 0 0 5 1;
#X connect 1 0 2 0;
#X connect 2 0 0 0;
#X connect 3 0 5 0;
#X connect 5 0 4 0;
#X coords 0 -1 1 1 17 17 2 100 100;
