#N canvas 520 188 450 300 10;
#X obj 103 100 hsl 30 10 0 2 0 0 empty empty empty -2 -8 0 10 -196563
-1 -1 1450 1;
#X obj 43 181 *~;
#X obj 43 143 inlet~;
#X obj 43 210 outlet~;
#X obj 100 128 pack 0 50;
#X obj 100 153 line;
#X obj 100 47 loadbang;
#X msg 100 69 1;
#X connect 0 0 4 0;
#X connect 1 0 3 0;
#X connect 2 0 1 0;
#X connect 4 0 5 0;
#X connect 5 0 1 1;
#X connect 6 0 7 0;
#X connect 7 0 0 0;
#X coords 0 -1 1 1 35 10 2 100 100;
