#N canvas 203 106 479 476 10;
#X obj -164 -54 route attack rest;
#X obj -165 -75 inlet;
#X msg -136 16 stop;
#X obj -176 273 outlet~;
#X obj -145 43 del 50;
#X msg -145 65 1 100;
#X obj -161 164 quartic~;
#X obj -62 98 pack 0 50;
#X obj -145 97 pack 0.8 50;
#X obj -176 249 *~;
#X obj -213 209 inlet~;
#X obj -151 -14 bng 15 250 50 0 empty empty empty 17 7 0 10 -262144
-1 -1;
#X obj -130 -13 bng 15 250 50 0 empty empty empty 17 7 0 10 -262144
-1 -1;
#X obj -220 91 pack 1 500;
#X obj 133 132 curve~;
#X floatatom 68 171 5 0 0 0 - - -;
#X floatatom 67 193 5 0 0 0 - - -;
#X msg -40 205 start;
#X msg 5 204 stop;
#X obj 4 268 eadsr~ 0 0;
#X text 104 179 60db attack and decay time;
#X floatatom 68 214 5 0 0 0 - - -;
#X floatatom 68 234 5 0 0 0 - - -;
#X text 103 213 sustain level;
#X text 104 236 60db release time;
#X obj 133 91 aenv~;
#X obj 35 -12 breakpoints~ 80 50;
#X connect 0 0 11 0;
#X connect 0 1 12 0;
#X connect 1 0 0 0;
#X connect 2 0 4 0;
#X connect 4 0 5 0;
#X connect 5 0 8 0;
#X connect 6 0 9 1;
#X connect 7 0 6 0;
#X connect 8 0 6 0;
#X connect 9 0 3 0;
#X connect 10 0 9 0;
#X connect 11 0 13 0;
#X connect 11 0 4 0;
#X connect 12 0 7 0;
#X connect 12 0 2 0;
#X connect 13 0 6 0;
#X connect 15 0 19 1;
#X connect 16 0 19 2;
#X connect 17 0 19 0;
#X connect 18 0 19 0;
#X connect 21 0 19 3;
#X connect 22 0 19 4;
#X coords 0 0 1 1 95 35 0;
