#N canvas 428 90 450 300 10;
#X obj -17 222 *~;
#X obj 53 222 *~;
#X obj 90 162 expr $f1*$f1;
#X obj 91 139 expr 1-($f1*$f1);
#X obj 68 201 sig~;
#X obj -2 201 sig~;
#X obj 18 292 +~;
#X obj 43 321 outlet~;
#X obj -25 151 inlet~;
#X obj 24 112 inlet~;
#X obj 103 100 hsl 30 10 0 1 0 0 empty empty empty -2 -8 0 10 -260164
-1 -1 0 1;
#X obj 81 290 expr~ ($v1*(1-$v3*$v3)) + ($v2*($v3*$v3));
#X connect 0 0 6 0;
#X connect 1 0 6 1;
#X connect 2 0 4 0;
#X connect 3 0 5 0;
#X connect 4 0 1 1;
#X connect 5 0 0 1;
#X connect 8 0 0 0;
#X connect 8 0 11 0;
#X connect 9 0 1 0;
#X connect 9 0 11 1;
#X connect 10 0 3 0;
#X connect 10 0 2 0;
#X connect 10 0 11 2;
#X connect 11 0 7 0;
#X coords 0 -1 1 1 35 10 2 100 100;
