#N canvas 0 22 450 300 10;
#X obj 116 165 *~;
#X obj 77 165 *~;
#X obj 76 214 *~;
#X obj 76 189 rifft~;
#X obj 76 237 outlet~;
#X obj 157 117 *~ 0.00065;
#X obj 109 214 tabreceive~ \$0-hann;
#X obj 115 24 inlet~;
#X obj 125 34 inlet~;
#X obj 135 44 inlet~;
#X connect 0 0 3 1;
#X connect 1 0 3 0;
#X connect 2 0 4 0;
#X connect 3 0 2 0;
#X connect 5 0 0 1;
#X connect 5 0 1 1;
#X connect 6 0 2 1;
#X connect 7 0 1 0;
#X connect 8 0 0 0;
#X connect 9 0 5 0;
