#N canvas 0 22 450 300 10;
#X obj -221 65 *~;
#X obj -221 40 inlet~;
#X obj -221 88 rfft~;
#X obj -134 127 *~;
#X obj -168 127 *~;
#X obj -168 150 +~;
#X obj -188 66 tabreceive~ \$0-hann;
#X obj -168 176 +~ 1e-20;
#X obj -168 203 q8_rsqrt~;
#X text -160 41 filter input;
#X obj -223 263 outlet~;
#X obj -195 283 outlet~;
#X obj -168 233 outlet~;
#X connect 0 0 2 0;
#X connect 1 0 0 0;
#X connect 2 0 4 0;
#X connect 2 0 4 1;
#X connect 2 0 10 0;
#X connect 2 1 3 0;
#X connect 2 1 3 1;
#X connect 2 1 11 0;
#X connect 3 0 5 1;
#X connect 4 0 5 0;
#X connect 5 0 7 0;
#X connect 6 0 0 1;
#X connect 7 0 8 0;
#X connect 8 0 12 0;
