#N canvas 0 22 450 300 10;
#X obj 100 100 tgl 10 0 empty empty empty 17 7 0 10 -258113 -262144
-262144 0 1;
#X obj 58 70 inlet~;
#X obj 59 124 *~;
#X obj 38 151 dac~;
#X obj 100 110 tgl 10 0 empty empty empty 17 7 0 10 -196563 -66577
-66577 0 1;
#X obj 103 154 *~;
#X obj 103 184 outlet~;
#X connect 0 0 2 1;
#X connect 1 0 2 0;
#X connect 1 0 5 0;
#X connect 2 0 3 1;
#X connect 4 0 5 1;
#X connect 5 0 6 0;
#X coords 0 -1 1 1 10 20 2 100 100;
