#N canvas 0 22 450 300 10;
#X obj 174 362 czero~;
#X obj 174 422 czero~;
#X obj 174 477 cpole~;
#X obj 174 537 cpole~;
#X obj 174 55 inlet~ audio;
#X obj 604 55 inlet~ b0;
#X obj 694 55 inlet~ b1;
#X obj 784 55 inlet~ b2;
#X obj 424 55 inlet~ a1;
#X obj 514 55 inlet~ a2;
#N canvas 0 22 450 300 extract.gain 0;
#X obj 92 74 inlet~;
#X obj 92 185 outlet~;
#X obj 212 74 inlet~;
#X obj 352 74 inlet~;
#X obj 212 185 outlet~;
#X obj 352 185 outlet~;
#X obj 212 141 /~;
#X obj 352 141 /~;
#X connect 0 0 1 0;
#X connect 0 0 6 1;
#X connect 0 0 7 1;
#X connect 2 0 6 0;
#X connect 3 0 7 0;
#X connect 6 0 4 0;
#X connect 7 0 5 0;
#X restore 604 174 pd extract.gain;
#N canvas 0 22 668 429 get.zero.locations 0;
#X obj 125 76 inlet~;
#X obj 324 76 inlet~;
#X obj 201 160 expr~ $v1*$v1 - 4*$v2;
#N canvas 333 33 715 527 zero1 0;
#X obj 78 86 inlet~;
#X obj 243 86 inlet~;
#X obj 180 140 expr~ sqrt(($v1>=0)*$v1);
#X obj 78 420 outlet~;
#X obj 171 420 outlet~;
#X obj 168 323 sig~ 2;
#X text 310 185 if sqrt(b^2-4ac) is less than 0 \, make it the imaginary
part of the numerator. Else \, add it to the real part (imaginary stays
zero).;
#X text 226 273 -b + ...;
#X obj 356 140 expr~ sqrt(($v1<0)*abs($v1));
#X obj 78 366 complex_div~;
#X obj 78 273 complex_add~;
#X connect 0 0 10 0;
#X connect 1 0 2 0;
#X connect 1 0 8 0;
#X connect 2 0 10 2;
#X connect 5 0 9 2;
#X connect 8 0 10 3;
#X connect 9 0 3 0;
#X connect 9 1 4 0;
#X connect 10 0 9 0;
#X connect 10 1 9 1;
#X restore 125 242 pd zero1;
#N canvas 104 96 715 527 zero2 0;
#X obj 78 86 inlet~;
#X obj 243 86 inlet~;
#X obj 356 140 expr~ sqrt(($v1<0)*abs($v1 ));
#X obj 180 140 expr~ sqrt(($v1>=0)*$v1);
#X obj 78 420 outlet~;
#X obj 171 420 outlet~;
#X obj 168 323 sig~ 2;
#X text 310 185 if sqrt(b^2-4ac) is less than 0 \, make it the imaginary
part of the numerator. Else \, add it to the real part (imaginary stays
zero).;
#X text 226 273 -b - ...;
#X obj 78 273 complex_sub~;
#X obj 78 366 complex_div~;
#X connect 0 0 9 0;
#X connect 1 0 3 0;
#X connect 1 0 2 0;
#X connect 2 0 9 3;
#X connect 3 0 9 2;
#X connect 6 0 10 2;
#X connect 9 0 10 0;
#X connect 9 1 10 1;
#X connect 10 0 4 0;
#X connect 10 1 5 0;
#X restore 197 243 pd zero2;
#X obj 121 336 outlet~;
#X obj 181 336 outlet~;
#X obj 241 336 outlet~;
#X obj 301 336 outlet~;
#X obj 125 159 *~ -1;
#X text 416 207 ---------------------;
#X text 461 218 2a;
#X text 370 193 roots = -b +/- sqrt(b^2 - 4ac);
#X text 305 244 Note: becase b0 is extracted from coefficents \, a
in the quadratic will always be 1;
#X connect 0 0 2 0;
#X connect 0 0 9 0;
#X connect 1 0 2 1;
#X connect 2 0 3 1;
#X connect 2 0 4 1;
#X connect 3 0 5 0;
#X connect 3 1 6 0;
#X connect 4 0 7 0;
#X connect 4 1 8 0;
#X connect 9 0 3 0;
#X connect 9 0 4 0;
#X restore 625 228 pd get.zero.locations;
#X obj 174 584 outlet~;
#X obj 174 282 *~;
#N canvas 663 40 664 509 get.pole.locations 0;
#X obj 125 76 inlet~;
#X obj 324 76 inlet~;
#X obj 121 336 outlet~;
#X obj 181 336 outlet~;
#X obj 241 336 outlet~;
#X obj 301 336 outlet~;
#N canvas 309 22 715 527 pole1 0;
#X obj 78 86 inlet~;
#X obj 243 86 inlet~;
#X obj 180 140 expr~ sqrt(($v1>=0)*$v1);
#X obj 78 420 outlet~;
#X obj 171 420 outlet~;
#X obj 168 323 sig~ 2;
#X text 310 185 if sqrt(b^2-4ac) is less than 0 \, make it the imaginary
part of the numerator. Else \, add it to the real part (imaginary stays
zero).;
#X text 226 273 -b + ...;
#X obj 356 140 expr~ sqrt(($v1<0)*abs($v1));
#X obj 78 273 complex_add~;
#X obj 77 366 complex_div~;
#X connect 0 0 9 0;
#X connect 1 0 2 0;
#X connect 1 0 8 0;
#X connect 2 0 9 2;
#X connect 5 0 10 2;
#X connect 8 0 9 3;
#X connect 9 0 10 0;
#X connect 9 1 10 1;
#X connect 10 0 3 0;
#X connect 10 1 4 0;
#X restore 125 242 pd pole1;
#N canvas 309 22 715 527 pole2 1;
#X obj 78 86 inlet~;
#X obj 243 86 inlet~;
#X obj 356 140 expr~ sqrt(($v1<0)*abs($v1 ));
#X obj 180 140 expr~ sqrt(($v1>=0)*$v1);
#X obj 78 420 outlet~;
#X obj 171 420 outlet~;
#X obj 168 323 sig~ 2;
#X text 310 185 if sqrt(b^2-4ac) is less than 0 \, make it the imaginary
part of the numerator. Else \, add it to the real part (imaginary stays
zero).;
#X text 226 273 -b - ...;
#X obj 78 273 complex_sub~;
#X obj 78 365 complex_div~;
#X connect 0 0 9 0;
#X connect 1 0 3 0;
#X connect 1 0 2 0;
#X connect 2 0 9 3;
#X connect 3 0 9 2;
#X connect 6 0 10 2;
#X connect 9 0 10 0;
#X connect 9 1 10 1;
#X connect 10 0 4 0;
#X connect 10 1 5 0;
#X restore 197 243 pd pole2;
#X obj 125 159 *~ 1;
#X obj 201 160 expr~ $v1*$v1 + 4*$v2;
#X text 395 225 ---------------------;
#X text 440 236 2a;
#X text 349 211 roots = -b +/- sqrt(b^2 - 4ac);
#X text 285 253 Note: since a0 is assumed to be 1 \, a in the quadratic
will always be 1;
#X text 344 160 < - because it should be -a1 and -a2;
#X connect 0 0 8 0;
#X connect 0 0 9 0;
#X connect 1 0 9 1;
#X connect 6 0 2 0;
#X connect 6 1 3 0;
#X connect 7 0 4 0;
#X connect 7 1 5 0;
#X connect 8 0 6 0;
#X connect 8 0 7 0;
#X connect 9 0 6 1;
#X connect 9 0 7 1;
#X restore 482 397 pd get.pole.locations;
#X text 920 186 y[n] = b0*x[n] + b1*x[n-1] + b2*x[n-2];
#X text 963 203 - a1*y[n-1] - a2*y[n-2];
#X text 863 158 Difference Equation:;
#X text 872 264 z-Transform:;
#X text 921 291 H(z) = b0 + b1*z^-1 + b2*z^-2;
#X text 963 300 ----------------------;
#X text 967 311 1 + a1*z^-1 + a2*z^-2;
#X text 987 580 .mmb;
#X connect 0 0 1 0;
#X connect 0 1 1 1;
#X connect 1 0 2 0;
#X connect 1 1 2 1;
#X connect 2 0 3 0;
#X connect 2 1 3 1;
#X connect 3 0 12 0;
#X connect 4 0 13 0;
#X connect 5 0 10 0;
#X connect 6 0 10 1;
#X connect 7 0 10 2;
#X connect 8 0 14 0;
#X connect 9 0 14 1;
#X connect 10 0 13 1;
#X connect 10 1 11 0;
#X connect 10 2 11 1;
#X connect 11 0 0 2;
#X connect 11 1 0 3;
#X connect 11 2 1 2;
#X connect 11 3 1 3;
#X connect 13 0 0 0;
#X connect 14 0 2 2;
#X connect 14 1 2 3;
#X connect 14 2 3 2;
#X connect 14 3 3 3;
