#N canvas 0 22 450 300 10;
#X obj 163 92 sqrt;
#X obj 163 118 sqrt;
#X obj 163 67 unpack;
#X obj 163 32 inlet;
#X obj 166 156 line~;
#X obj 167 188 *~;
#X obj 167 217 *~;
#X obj 166 252 outlet~;
#X connect 0 0 1 0;
#X connect 1 0 4 0;
#X connect 2 0 0 0;
#X connect 2 1 4 1;
#X connect 3 0 2 0;
#X connect 4 0 5 0;
#X connect 4 0 5 1;
#X connect 5 0 6 0;
#X connect 5 0 6 1;
#X connect 6 0 7 0;
