#N canvas 302 158 217 256 10;
#X obj -74 -66 inlet~;
#X obj 22 -91 inlet;
#X obj -58 65 outlet~;
#X obj -58 -5 vcf~ 1;
#X obj -58 35 vcf~ 1;
#X obj -16 -91 inlet~;
#X connect 0 0 3 0;
#X connect 1 0 3 2;
#X connect 1 0 4 2;
#X connect 3 0 4 0;
#X connect 4 0 2 0;
#X connect 5 0 3 1;
#X connect 5 0 4 1;
