#N canvas 0 22 450 300 10;
#X obj 31 640 t f f;
#X obj 107 176 bng 15 250 50 0 empty empty empty 0 -6 0 8 -262144 -1
-1;
#X obj 31 720 expr 1-($f1*$f1);
#X obj 31 694 - 1;
#X text -22 569 Welch;
#X obj 127 547 t f f;
#X obj 123 176 bng 15 250 50 0 empty empty empty 0 -6 0 8 -262144 -1
-1;
#X obj 127 601 - 1;
#X text 76 476 Bartlett;
#X obj 127 637 expr 1-abs($f1);
#X obj 198 445 t f f;
#X obj 140 176 bng 15 250 50 0 empty empty empty 0 -6 0 8 -262144 -1
-1;
#X text 147 378 Hanning;
#X obj 198 583 expr 0.5+0.5*cos($f1);
#X obj 198 499 - 1;
#X obj 198 557 *;
#X obj 233 547 pi;
#X obj 198 522 t f b;
#X obj 276 377 t f f;
#X obj 157 176 bng 15 250 50 0 empty empty empty 0 -6 0 8 -262144 -1
-1;
#X obj 276 431 - 1;
#X obj 276 489 *;
#X obj 311 479 pi;
#X obj 276 454 t f b;
#X text 225 307 Hamming;
#X obj 276 515 expr 0.54+0.46*cos($f1);
#X obj 353 329 t f f;
#X obj 174 176 bng 15 250 50 0 empty empty empty 0 -6 0 8 -262144 -1
-1;
#X obj 353 383 - 1;
#X obj 353 441 *;
#X obj 353 406 t f b;
#X text 300 257 Blackman;
#X obj 353 467 expr 0.42+0.5*cos($f1)+0.08*cos(2*$f1);
#X obj 434 286 t f f;
#X obj 191 176 bng 15 250 50 0 empty empty empty 0 -6 0 8 -262144 -1
-1;
#X text 381 215 Gaussian;
#X obj 434 340 - 1;
#X obj 434 366 expr exp(-1*(pow(($f2*$f1) \, 2)));
#X floatatom 451 179 5 0 0 0 - - -;
#X obj 388 432 pi;
#X obj -20 615 Uzi 2048;
#X obj 76 522 Uzi 2048;
#X obj 301 301 Uzi 2048;
#X obj 383 261 Uzi 2048;
#X obj 225 352 Uzi 2048;
#X obj 147 420 Uzi 2048;
#X obj 276 405 / 1024;
#X obj 198 473 / 1024;
#X obj 127 575 / 1024;
#X obj 432 314 / 1024;
#X obj 353 357 / 1024;
#X obj 31 668 / 1024;
#X obj 344 687 outlet;
#X obj 222 775 outlet;
#X obj 282 96 inlet;
#X obj 1 282 / 2;
#X obj 288 146 t f f;
#X obj 371 77 inlet;
#X obj 101 101 hradio 8 1 0 4 empty empty empty 0 -8 0 10 -262144 -1
-1 3;
#X obj 84 141 route 0 1 2 3;
#X obj 104 109 hsl 27 8 1 5 0 0 empty empty empty -2 -8 0 10 -262144
-1 -1 2100 1;
#X connect 0 0 51 0;
#X connect 0 1 52 0;
#X connect 1 0 40 0;
#X connect 2 0 53 0;
#X connect 3 0 2 0;
#X connect 5 0 48 0;
#X connect 5 1 52 0;
#X connect 6 0 41 0;
#X connect 7 0 9 0;
#X connect 9 0 53 0;
#X connect 10 0 47 0;
#X connect 10 1 52 0;
#X connect 11 0 45 0;
#X connect 13 0 53 0;
#X connect 14 0 17 0;
#X connect 15 0 13 0;
#X connect 16 0 15 1;
#X connect 17 0 15 0;
#X connect 17 1 16 0;
#X connect 18 0 46 0;
#X connect 18 1 52 0;
#X connect 19 0 44 0;
#X connect 20 0 23 0;
#X connect 21 0 25 0;
#X connect 22 0 21 1;
#X connect 23 0 21 0;
#X connect 23 1 22 0;
#X connect 25 0 53 0;
#X connect 26 0 50 0;
#X connect 26 1 52 0;
#X connect 27 0 42 0;
#X connect 28 0 30 0;
#X connect 29 0 32 0;
#X connect 30 0 29 0;
#X connect 30 1 39 0;
#X connect 32 0 53 0;
#X connect 33 0 49 0;
#X connect 33 1 52 0;
#X connect 34 0 43 0;
#X connect 36 0 37 0;
#X connect 37 0 53 0;
#X connect 38 0 37 1;
#X connect 39 0 29 1;
#X connect 40 2 0 0;
#X connect 41 2 5 0;
#X connect 42 2 26 0;
#X connect 43 2 33 0;
#X connect 44 2 18 0;
#X connect 45 2 10 0;
#X connect 46 0 20 0;
#X connect 47 0 14 0;
#X connect 48 0 7 0;
#X connect 49 0 36 0;
#X connect 50 0 28 0;
#X connect 51 0 3 0;
#X connect 54 0 56 0;
#X connect 55 0 51 1;
#X connect 55 0 49 1;
#X connect 55 0 47 1;
#X connect 55 0 46 1;
#X connect 55 0 50 1;
#X connect 55 0 48 1;
#X connect 56 0 40 1;
#X connect 56 0 41 1;
#X connect 56 0 45 1;
#X connect 56 0 44 1;
#X connect 56 0 42 1;
#X connect 56 0 43 1;
#X connect 56 1 55 0;
#X connect 57 0 11 0;
#X connect 58 0 59 0;
#X connect 59 0 11 0;
#X connect 59 1 6 0;
#X connect 59 2 1 0;
#X connect 59 3 34 0;
#X connect 60 0 38 0;
#X coords 0 -1 1 1 34 18 2 100 100;
